<?xml version="1.0" ?>
<svg xmlns="http://www.w3.org/2000/svg" xmlns:xlink="http://www.w3.org/1999/xlink" version="1.1" width="2837pt" height="1965pt" viewBox="0 0 2837 1965">
	<defs>
		<path id="font_1_1" d="M.30419923 0H.2319336V.5595703C.21533203 .5401306 .19303386 .520284 .16503906 .5000305 .13704427 .479777 .111328128 .46446739 .087890628 .45410157V.5390625C.12760417 .56184896 .16267903 .58968099 .19311524 .6225586 .22355144 .6554362 .24495442 .6875 .25732423 .71875H.30419923V0Z"/>
		<path id="font_1_2" d="M.41259767 .08496094V0H.024414063C.0234375 .034240724 .033772787 .07256063 .055419923 .11495972 .077067058 .15735881 .11669922 .2074178 .1743164 .26513673 .24169922 .332194 .28580729 .3840332 .30664063 .4206543 .32747398 .4572754 .33789063 .4913737 .33789063 .5229492 .33789063 .55940756 .32722984 .5891113 .3059082 .61206057 .28458659 .63500979 .25830079 .6464844 .22705078 .6464844 .19352214 .6464844 .16601563 .63402816 .14453125 .6091156 .123046878 .58421328 .11230469 .54849246 .11230469 .5019531L.038085939 .51171877C.04329427 .5804036 .06274414 .6320801 .09643555 .66674807 .13012696 .701416 .17447917 .71875 .22949219 .71875 .28938804 .71875 .3347168 .69859316 .36547853 .6582794 .39624024 .6179657 .4116211 .5721232 .4116211 .52075198 .4116211 .47524009 .3995768 .43159486 .37548829 .38981629 .35139976 .34803773 .30566407 .29231773 .23828125 .22265625 .1953125 .17871094 .16756185 .14876302 .1550293 .1328125 .14249675 .11686198 .13232422 .10091146 .12451172 .08496094H.41259767Z"/>
		<path id="font_1_3" d="M0-.01171875 .16992188 .72753909H.22802735L.057617189-.01171875H0Z"/>
		<path id="font_1_4" d="M.032714845 .35327149C.032714845 .47330729 .048909505 .5642293 .08129883 .6260376 .11368815 .6878459 .16145833 .71875 .22460938 .71875 .28059898 .71875 .32470704 .69370016 .3569336 .64360049 .3959961 .5830943 .41552735 .48631797 .41552735 .35327149 .41552735 .23388672 .39941407 .14320882 .3671875 .08123779 .33496095 .019266764 .28710938-.01171875 .22363281-.01171875 .16764324-.01171875 .12182617 .015604655 .08618164 .070251468 .05053711 .12490845 .032714845 .21924846 .032714845 .35327149M.10644531 .35351563C.10644531 .23730469 .1175944 .15942383 .13989258 .11987305 .16219075 .080322269 .1907552 .060546876 .22558594 .060546876 .25846354 .060546876 .28597007 .080566409 .30810548 .12060547 .33024089 .16064453 .3413086 .23828125 .3413086 .35351563 .3413086 .4700521 .33015953 .54801437 .30786134 .58740237 .28556315 .62679037 .2566732 .6464844 .2211914 .6464844 .18863933 .6464844 .16137696 .62646487 .1394043 .5864258 .11743164 .5463867 .10644531 .46875 .10644531 .35351563Z"/>
		<path id="font_1_5" d="M.033203126 .19042969 .10546875 .20214844C.12044271 .1077474 .15836589 .060546876 .21923828 .060546876 .25211589 .060546876 .28059898 .07448324 .3046875 .10235596 .32877604 .13023885 .3408203 .1663564 .3408203 .21070862 .3408203 .2524465 .3297526 .2860311 .3076172 .3114624 .28548179 .3368937 .25830079 .34960938 .22607422 .34960938 .21240235 .34960938 .19547527 .34635417 .17529297 .33984376L.18359375 .4169922 .19482422 .41601563C.23030599 .41601563 .2591146 .4268748 .28125 .44859315 .3033854 .4703115 .31445313 .49932353 .31445313 .5356293 .31445313 .5690155 .30517579 .5958354 .2866211 .61608889 .2680664 .63635256 .2454427 .6464844 .21875 .6464844 .19108074 .6464844 .16772461 .63582357 .14868164 .61450198 .12963867 .59318038 .11751302 .5608724 .11230469 .5175781L.040527345 .5332031C.049641927 .59440109 .07014974 .640625 .10205078 .671875 .13395183 .703125 .17252605 .71875 .21777344 .71875 .26529948 .71875 .30566407 .7011922 .3388672 .66607668 .3720703 .63097128 .38867188 .5867615 .38867188 .53344729 .38867188 .50094607 .3815918 .47217814 .36743165 .44714356 .35327149 .42210899 .3334961 .4024404 .30810548 .38813783 .33154298 .38163758 .35091148 .37091065 .36621095 .35595704 .3815104 .34100343 .39388023 .3210093 .4033203 .29597474 .4127604 .27094016 .41748048 .24298096 .41748048 .21209717 .41748048 .14643352 .39811198 .0927124 .359375 .050933839 .32063804 .009165446 .2742513-.01171875 .22021485-.01171875 .17008464-.01171875 .12760417 .006551107 .09277344 .04309082 .057942708 .07964071 .038085939 .12875366 .033203126 .19042969Z"/>
		<path id="font_1_21" d="M.05859375 0V.7158203H.13623047V.08496094H.42529298V0H.05859375Z"/>
		<path id="font_1_10" d="M-.0009765625 0 .22460938 .7158203H.30810548L.54833987 0H.45947267L.39111329 .21679688H.1459961L.08154297 0H-.0009765625M.16845703 .2939453H.3671875L.30615235 .4921875C.28727214 .5530599 .2734375 .60253909 .26464845 .640625 .25716148 .59472659 .24658203 .5491536 .23291016 .50390627L.16845703 .2939453Z"/>
		<path id="font_1_11" d="M.061035158 0V.7158203H.140625L.44921876 .15257263V.7158203H.5234375V0H.44384767L.13574219 .5623474V0H.061035158Z"/>
		<path id="font_1_20" d="M.060546876 0V.7158203H.1381836V.36083985L.4296875 .7158203H.53515627L.28857423 .42547608 .54589846 0H.44335938L.234375 .3615265 .1381836 .24804688V0H.060546876Z"/>
		<path id="font_1_44" d="M.060546876 0V.7158203H.28076173C.32535807 .7158203 .3606771 .70891317 .38671876 .6950989 .4127604 .6812846 .43408204 .6597493 .4506836 .63049319 .46728517 .601237 .47558595 .56889346 .47558595 .5334625 .47558595 .5006358 .46842448 .47105918 .45410157 .44473268 .43977867 .41840617 .41959635 .39727784 .3935547 .38134767 .42773438 .36895753 .45467124 .34784953 .47436524 .31802369 .49405924 .288208 .50390627 .25145976 .50390627 .20777893 .50390627 .16443379 .4950358 .12638347 .47729493 .09362793 .45955406 .060872396 .4358724 .037078859 .40625 .022247315 .3766276 .0074157717 .3359375 0 .2841797 0H.060546876M.1381836 .41601563H.26513673C.29833985 .41601563 .3219401 .41827903 .3359375 .4228058 .35611979 .42959086 .37166343 .4409841 .38256837 .45698548 .3934733 .47299705 .39892579 .49474589 .39892579 .52223208 .39892579 .5477651 .39396159 .56902059 .3840332 .58599856 .37410484 .6029765 .36092124 .61469528 .34448243 .6211548 .3280436 .6276245 .2985026 .6308594 .25585938 .6308594H.1381836V.41601563M.1381836 .08496094H.2841797C.31640626 .08496094 .34016929 .087890628 .35546876 .09375 .37760417 .10221354 .39444987 .116129558 .40600587 .13549805 .41756187 .15486653 .42333985 .17919922 .42333985 .2084961 .42333985 .23551433 .417806 .25838218 .40673829 .2770996 .39567057 .29581706 .38077799 .30948893 .36206056 .31811524 .3433431 .32674156 .31396485 .3310547 .27392579 .3310547H.1381836V.08496094Z"/>
		<path id="font_1_13" d="M.037597658 .6220703V.70703127H.41748048V.6386261C.36083985 .5650075 .31103517 .4691569 .2680664 .35107423 .22509766 .23299153 .20035808 .1159668 .19384766 0H.119628909C.12060547 .059895833 .13012696 .12972005 .14819336 .20947266 .16625977 .28922526 .19108074 .36523438 .22265625 .4375 .25423179 .5097656 .2882487 .57128909 .32470704 .6220703H.037597658Z"/>
		<path id="font_1_14" d="M.14355469 .38893128C.114583339 .4019216 .092692058 .42051188 .07788086 .44470216 .063069667 .4689026 .055664064 .49902854 .055664064 .53507998 .055664064 .5893199 .07169596 .63348898 .103759769 .6675873 .13582357 .70169577 .17610677 .71875 .22460938 .71875 .2734375 .71875 .31404624 .70137026 .34643556 .6666107 .37882487 .6318614 .39501954 .5870463 .39501954 .5321655 .39501954 .49773155 .38785807 .46857707 .37353517 .44470216 .35921226 .4208374 .3375651 .4022471 .30859376 .38893128 .34407554 .3749237 .3713379 .35228477 .39038087 .3210144 .40942384 .28974406 .4189453 .25098167 .4189453 .20472718 .4189453 .1408844 .40047203 .08884684 .3635254 .048614503 .32657878 .008392334 .28076173-.01171875 .22607422-.01171875 .17073567-.01171875 .1245931 .008392334 .087646488 .048614503 .05069987 .08884684 .032226564 .1416982 .032226564 .20716858 .032226564 .25505067 .042073568 .2945455 .061767579 .32565309 .081461589 .35676066 .10872396 .3778534 .14355469 .38893128M.12988281 .5375824C.12988281 .50257876 .13916016 .47470603 .15771485 .45396424 .17626953 .43322245 .19905599 .42285157 .22607422 .42285157 .2524414 .42285157 .27490235 .4330597 .29345704 .45347596 .31201173 .4738922 .32128907 .50031027 .32128907 .5327301 .32128907 .56610617 .31176759 .59340927 .2927246 .6146393 .27368165 .6358693 .2511393 .6464844 .22509766 .6464844 .19905599 .6464844 .17667644 .63611349 .15795899 .6153717 .13924153 .59462997 .12988281 .56870016 .12988281 .5375824M.10595703 .20703125C.10595703 .16308594 .117757167 .12768555 .14135742 .10083008 .16495769 .07397461 .19319661 .060546876 .22607422 .060546876 .25927735 .060546876 .2874349 .07356771 .31054688 .099609378 .33365885 .12565105 .34521485 .16048177 .34521485 .20410156 .34521485 .24804688 .33333335 .28344728 .3095703 .31030274 .28580729 .3371582 .25732423 .35058595 .2241211 .35058595 .19124349 .35058595 .16333008 .3372396 .14038086 .31054688 .11743164 .28385417 .10595703 .24934896 .10595703 .20703125Z"/>
		<path id="font_1_15" d="M.40673829 .5410156 .33496095 .5341797C.328125 .5708008 .31803385 .5968933 .3046875 .6124573 .28548179 .635142 .26236979 .6464844 .23535156 .6464844 .19335938 .6464844 .15966797 .6204478 .13427735 .56837466 .112467449 .52345278 .10139974 .4570516 .10107422 .36917115 .11767578 .40057374 .13850911 .42436729 .16357422 .44055177 .18863933 .45674644 .21516927 .46484376 .24316406 .46484376 .28971354 .46484376 .33032228 .44376628 .36499024 .40161134 .3996582 .3594564 .4169922 .3030599 .4169922 .23242188 .4169922 .18457031 .40828453 .14119466 .39086915 .10229492 .37345378 .06339518 .35107423 .03466797 .32373048 .016113282 .29638673-.0024414063 .26627604-.01171875 .23339844-.01171875 .17415364-.01171875 .12532552 .014953613 .08691406 .06829834 .048502607 .12165324 .029296875 .21062725 .029296875 .33522035 .029296875 .47347514 .048990888 .57196047 .088378909 .63067629 .12776692 .6893921 .17822266 .71875 .2397461 .71875 .28434245 .71875 .32169596 .7035726 .35180665 .6732178 .38191734 .642863 .40022788 .5987956 .40673829 .5410156M.11230469 .23216248C.11230469 .18048604 .12451172 .13896179 .14892578 .10758972 .17333985 .07622782 .20166016 .060546876 .23388672 .060546876 .26220704 .060546876 .28751628 .07533264 .30981446 .104904178 .33211265 .13448589 .34326173 .17512004 .34326173 .22680664 .34326173 .2775065 .332194 .3168335 .3100586 .3447876 .2879232 .3727417 .26090495 .38671876 .2290039 .38671876 .1977539 .38671876 .17049153 .3728231 .1472168 .34503175 .123942058 .3172404 .11230469 .2796173 .11230469 .23216248Z"/>
		<path id="font_1_17" d="M.04345703 .16601563 .11279297 .17285156C.12386068 .09798177 .15641277 .060546876 .21044922 .060546876 .23453777 .060546876 .25642906 .068751018 .27612306 .0851593 .29581706 .10157776 .3125 .13074748 .32617188 .17266846 .33984376 .21458943 .3466797 .26349894 .3466797 .31939698V.33694459C.33170573 .30781047 .31152345 .2847341 .2861328 .26771546 .2607422 .2506968 .23486328 .2421875 .2084961 .2421875 .16064453 .2421875 .119384769 .26312257 .0847168 .30499269 .050048829 .3468628 .032714845 .40413413 .032714845 .47680665 .032714845 .5517476 .05069987 .61080428 .08666992 .65397647 .12263998 .6971588 .16634114 .71875 .21777344 .71875 .25423179 .71875 .2882487 .7067108 .31982423 .68263247 .35139976 .65856429 .3758138 .6231079 .3930664 .5762634 .410319 .52941897 .4189453 .46191917 .4189453 .37376405 .4189453 .27552796 .40966798 .19924419 .39111329 .14491272 .3725586 .09059143 .3474121 .05090332 .31567384 .025848389 .28393556 .0008036296 .24837239-.01171875 .20898438-.01171875 .16438802-.01171875 .12711589 .0034993489 .09716797 .033935548 .067220058 .06437174 .049316408 .10839844 .04345703 .16601563M.3388672 .48168946C.3388672 .53286746 .32747398 .5731252 .3046875 .60246279 .28190104 .6318105 .25569663 .6464844 .22607422 .6464844 .19514974 .6464844 .16756185 .6308339 .14331055 .5995331 .11905924 .5682424 .106933597 .5265147 .106933597 .47434999 .106933597 .42740379 .118489589 .3899943 .14160156 .36212159 .16471355 .33424888 .19238281 .3203125 .22460938 .3203125 .2565104 .3203125 .28352867 .33433024 .30566407 .36236573 .32779948 .3904012 .3388672 .43017579 .3388672 .48168946Z"/>
		<path id="font_1_43" d="M.44677735 .7158203H.52490237V.30252076C.52490237 .23323567 .51814779 .1763916 .5046387 .13198853 .49112956 .08758545 .46655274 .052530927 .4309082 .026824952 .39526368 .0011291504 .3499349-.01171875 .29492188-.01171875 .21744792-.01171875 .15942383 .011377971 .12084961 .05757141 .08227539 .103764858 .06298828 .18541463 .06298828 .30252076V.7158203H.140625V.30336C.140625 .23868306 .14567058 .19187927 .15576172 .16294861 .16585286 .13401795 .18237305 .11199442 .20532227 .09687805 .22827149 .08177185 .2561849 .07421875 .2890625 .07421875 .34440104 .07421875 .38452149 .08981832 .40942384 .121017459 .43432618 .15222676 .44677735 .21300762 .44677735 .30336V.7158203Z"/>
		<path id="font_1_26" d="M.47998048 .25195313 .55810549 .22753906C.54085287 .14713542 .5106608 .0871582 .4675293 .047607423 .4243978 .008056641 .37190757-.01171875 .3100586-.01171875 .25569663-.01171875 .20922852 .001546224 .1706543 .028076172 .13208008 .05460612 .100504558 .09716797 .075927738 .15576172 .05135091 .21435547 .0390625 .28352867 .0390625 .36328126 .0390625 .44205729 .05135091 .5087077 .075927738 .5632324 .100504558 .61775717 .13378906 .65893557 .17578125 .6867676 .21777344 .7145996 .26464845 .7285156 .31640626 .7285156 .37304688 .7285156 .42171226 .7108968 .46240235 .6756592 .50309249 .64042159 .5315755 .5887044 .54785159 .5205078L.4716797 .49804688C.44563804 .59765627 .39339195 .64746096 .3149414 .64746096 .2758789 .64746096 .24202474 .6374512 .2133789 .61743167 .18473308 .5974121 .16186524 .56624349 .14477539 .5239258 .12768555 .48160807 .119140628 .4280599 .119140628 .36328126 .119140628 .26529948 .13639324 .19181316 .17089844 .14282227 .20540364 .09383138 .2513021 .06933594 .30859376 .06933594 .35091148 .06933594 .38745118 .08443197 .4182129 .11462402 .4489746 .14481609 .4695638 .19059246 .47998048 .25195313Z"/>
		<path id="font_1_47" d="M.06298828 0V.7158203H.140625V.42285157H.44580079V.7158203H.5234375V0H.44580079V.33789063H.140625V0H.06298828Z"/>
		<path id="font_1_6" d="M.21386719 0V.6308594H.020507813V.7158203H.48583985V.6308594H.2915039V0H.21386719Z"/>
		<path id="font_1_22" d="M0 0Z"/>
		<path id="font_1_24" d="M.23144531 0 .00390625 .7158203H.087890628L.24072266 .19580078C.2524414 .1554362 .2626953 .11653646 .27148438 .07910156 .28059898 .11816406 .29101563 .1570638 .30273438 .19580078L.46142579 .7158203H.54052737L.31103517 0H.23144531Z"/>
		<path id="font_1_19" d="M.064941409 0V.7158203H.4892578V.6308594H.14257813V.41308595H.46728517V.328125H.14257813V.08496094H.5029297V0H.064941409Z"/>
		<path id="font_1_25" d="M.078125 0V.7158203H.15576172V0H.078125Z"/>
		<path id="font_1_8" d="M.06298828 0V.7158203H.3232422C.37760417 .7158203 .4177246 .7091624 .44360353 .69584658 .46948243 .6825409 .49072267 .66038009 .5073242 .629364 .5239258 .59835818 .53222659 .56239828 .53222659 .5214844 .53222659 .46758018 .51814779 .42390443 .48999024 .39045716 .46183268 .35702006 .42089845 .3357544 .3671875 .32666017 .3889974 .3133138 .40559898 .2998047 .4169922 .2861328 .44010417 .25878907 .46044923 .22835286 .47802735 .19482422L.5805664 0H.48291017L.40478517 .14883423C.37451173 .20707195 .3516439 .24635823 .33618165 .26669313 .3207194 .28702799 .30574546 .3007202 .29125978 .30776979 .27677409 .3148295 .2565104 .31835938 .23046875 .31835938H.140625V0H.06298828M.140625 .40039063H.3076172C.34407554 .40039063 .37174479 .404775 .390625 .4135437 .40950523 .4223124 .42447917 .43611656 .43554688 .45495606 .4466146 .47380577 .45214845 .4957377 .45214845 .52075198 .45214845 .5568034 .441569 .58514407 .42041017 .6057739 .3992513 .6264038 .36783854 .63671877 .32617188 .63671877H.140625V.40039063Z"/>
		<path id="font_1_23" d="M.33984376 .28125V.36621095L.5883789 .3671875V.1005249C.55029299 .06327311 .51090499 .035252889 .47021485 .016464234 .42952476-.0023244222 .3876953-.01171875 .34472657-.01171875 .2874349-.01171875 .23632813 .0026041668 .19140625 .03125 .14648438 .059895833 .11092123 .10172526 .0847168 .15673828 .05851237 .2117513 .045410158 .27783204 .045410158 .35498048 .045410158 .43310548 .05859375 .50113937 .08496094 .55908206 .111328128 .6170247 .14583333 .6597493 .18847656 .68725588 .2311198 .7147624 .28157554 .7285156 .33984376 .7285156 .3828125 .7285156 .42041017 .72052 .45263673 .7045288 .48486329 .6885478 .51139327 .6658732 .53222659 .6365051 .5530599 .6071472 .5686849 .5668538 .57910159 .515625L.50927737 .4921875C.49983726 .5326843 .48795573 .562973 .4736328 .5830536 .4593099 .60313418 .4404297 .6188863 .4169922 .63031008 .3935547 .64174398 .3671875 .64746096 .33789063 .64746096 .2952474 .64746096 .25854493 .63713076 .2277832 .61647036 .19702149 .5958201 .1722819 .56370547 .15356446 .52012637 .134847 .47654725 .12548828 .42337037 .12548828 .3605957 .12548828 .26497398 .14550781 .19333904 .18554688 .14569092 .22558594 .09804281 .27766929 .07421875 .34179688 .07421875 .37239585 .07421875 .4037272 .08152262 .43579103 .09613037 .46785484 .11074829 .4933268 .12812805 .51220706 .14826966V.28125H.33984376Z"/>
		<path id="font_1_7" d="M.041503908 .34887696C.041503908 .47087608 .068359378 .5646464 .12207031 .630188 .17578125 .69573977 .24267578 .7285156 .3227539 .7285156 .37451173 .7285156 .42171226 .7138774 .46435548 .68460085 .5069987 .6553243 .5407715 .6127879 .5656738 .5569916 .5905762 .50120547 .60302737 .43476359 .60302737 .35766603 .60302737 .25161744 .5789388 .1652476 .5307617 .09855652 .4777018 .025039673 .40820313-.01171875 .32226563-.01171875 .23567708-.01171875 .16601563 .026016236 .11328125 .101486209 .06542969 .16980489 .041503908 .25226847 .041503908 .34887696M.12158203 .34765626C.12158203 .2594401 .1410319 .19099935 .17993164 .14233399 .21883138 .09366862 .26611329 .06933594 .32177735 .06933594 .3787435 .06933594 .42651368 .09391276 .4650879 .1430664 .5036621 .19222005 .5229492 .2644857 .5229492 .35986329 .5229492 .42138673 .5130208 .47639976 .49316407 .52490237 .4778646 .5620117 .45483399 .5917155 .42407228 .6140137 .39331056 .6363118 .35970054 .64746096 .3232422 .64746096 .26464845 .64746096 .21638997 .6230469 .1784668 .57421877 .14054363 .5253906 .12158203 .44986979 .12158203 .34765626Z"/>
		<path id="font_1_28" d="M.061523439 0V.7158203H.26416017C.31429038 .7158203 .3523763 .7114258 .37841798 .7026367 .41259767 .69124349 .44222007 .67041018 .46728517 .6401367 .49235026 .6098633 .51188156 .571696 .5258789 .52563479 .5398763 .47957359 .546875 .42496745 .546875 .3618164 .546875 .28076173 .53499349 .21199544 .51123049 .15551758 .48746745 .09903971 .45694987 .059000654 .41967774 .03540039 .3824056 .01180013 .33365885 0 .2734375 0H.061523439M.13916016 .08496094H.26416017C.31461589 .08496094 .3528646 .09316508 .37890626 .109573367 .4049479 .12598165 .42496745 .15238445 .43896485 .18878174 .45751954 .2371928 .46679688 .29519145 .46679688 .3627777 .46679688 .4352468 .45694987 .4921926 .43725587 .5336151 .41756187 .5750478 .3922526 .6027527 .36132813 .61672976 .34049479 .6261495 .30745445 .6308594 .26220704 .6308594H.13916016V.08496094Z"/>
		<path id="font_1_12" d="M.037109376 .23242188 .11035156 .23925781C.11425781 .1998698 .12312826 .16918946 .13696289 .1472168 .15079753 .12524414 .17057292 .10758463 .19628906 .09423828 .2220052 .08089193 .25097657 .07421875 .28320313 .07421875 .3294271 .07421875 .36531578 .08543396 .39086915 .10786438 .41642253 .1302948 .42919923 .15942383 .42919923 .19525147 .42919923 .21623738 .42456056 .2345581 .4152832 .25021363 .40600587 .26586915 .39200846 .2786967 .37329103 .2886963 .35457359 .29870606 .3141276 .31303916 .25195313 .33169557 .19661458 .34835816 .15722656 .36498515 .13378906 .38157655 .11035156 .39816795 .0921224 .41923014 .07910156 .44476319 .06608073 .4703064 .059570314 .49917604 .059570314 .5313721 .059570314 .58928427 .07828776 .636617 .115722659 .67337039 .15315755 .71013388 .20361328 .7285156 .26708985 .7285156 .31070964 .7285156 .34887696 .71988937 .3815918 .7026367 .41430665 .6853841 .43969728 .66064456 .45776368 .62841799 .47583009 .5961914 .4855143 .55826827 .4868164 .51464846L.41210938 .5078125C.40820313 .5541992 .3942871 .58858236 .37036134 .6109619 .34643556 .6333415 .31282554 .64453127 .26953126 .64453127 .22558594 .64453127 .1920573 .63471987 .16894531 .61509707 .14583333 .59548446 .13427735 .57011416 .13427735 .5389862 .13427735 .5101369 .14274089 .48776756 .15966797 .47187806 .17659505 .45598857 .21468099 .43977867 .27392579 .4232483 .3318685 .40705363 .3725586 .39301048 .3959961 .38111878 .43180339 .36260478 .45882163 .33852134 .47705079 .3088684 .49527995 .27921549 .50439456 .24381002 .50439456 .20265198 .50439456 .16181946 .49479167 .12463379 .47558595 .09109497 .45638023 .057556154 .43025718 .032033285 .3972168 .014526367 .36417643-.0029703777 .3243815-.01171875 .27783204-.01171875 .20524089-.01171875 .14737956 .010223389 .10424805 .054107667 .061116537 .09799194 .03873698 .15743001 .037109376 .23242188Z"/>
		<path id="font_1_9" d="M.061035158 0V.7158203H.17773438L.31689454 .20898438 .34472657 .103027347C.3515625 .12939453 .36197917 .16764324 .37597657 .21777344L.51660159 .7158203H.62109377V0H.5463867V.5985565L.37548829 0H.30566407L.13574219 .60879519V0H.061035158Z"/>
		<path id="font_1_62" d="M.00390625 0 .23095703 .37294007 .030761719 .7158203H.123046878L.22998047 .5324707C.25179038 .49483238 .26741538 .4655304 .27685548 .44456483 .28955079 .46987406 .30501304 .4969584 .3232422 .5258179L.44189454 .7158203H.5258789L.31982423 .37876893 .5419922 0H.44628907L.29833985 .25523377C.2902018 .26948548 .28173829 .28534446 .27294923 .30281068 .25960288 .2769928 .25016276 .2591044 .2446289 .24914551L.09716797 0H.00390625Z"/>
		<path id="font_1_56" d="M.021972657 .20410156 .091796878 .21582031C.09375 .16113281 .10221354 .123697917 .1171875 .103515628 .13216146 .083333339 .15283203 .07324219 .17919922 .07324219 .1977539 .07324219 .21411133 .07835897 .22827149 .08859253 .24243164 .098836269 .25195313 .11176046 .25683595 .12736511 .26367188 .14848328 .26708985 .18049622 .26708985 .22340393V.7158203H.34472657V.22834778C.34472657 .14051819 .33032228 .07854716 .30151368 .042434694 .27270509 .0063323976 .23209636-.01171875 .1796875-.01171875 .12858074-.01171875 .09049479 .0045928957 .06542969 .037216188 .036458333 .074417117 .021972657 .13004558 .021972657 .20410156Z"/>
		<path id="font_1_59" d="M.5102539 .07714844C.5463867 .046875 .57958987 .024739584 .6098633 .0107421879L.58691409-.055664064C.5439453-.03668213 .5019531-.0072224938 .4609375 .032714845 .41764323 .003092448 .36979167-.01171875 .3173828-.01171875 .23144531-.01171875 .16194661 .025853476 .10888672 .100997928 .061035158 .16866558 .037109376 .2542216 .037109376 .35766603 .037109376 .4350891 .04996745 .502182 .075683597 .5589447 .10139974 .6157176 .13517253 .6581726 .17700196 .6863098 .21883138 .714447 .26595054 .7285156 .31835938 .7285156 .3701172 .7285156 .41723634 .71395877 .4597168 .684845 .50219729 .6557312 .53597006 .61328127 .56103518 .5574951 .5861003 .5017192 .5986328 .43577067 .5986328 .35964967 .5986328 .30013023 .5909017 .2462972 .57543948 .19815064 .55997726 .15001424 .5382487 .109680179 .5102539 .07714844M.3388672 .19824219C.38346354 .18326824 .42041017 .16048177 .44970704 .12988281 .49527995 .18131511 .5180664 .25797526 .5180664 .35986329 .5180664 .42138673 .5093587 .4736328 .49194337 .51660159 .47452799 .5595703 .45043946 .5921224 .41967774 .6142578 .38891603 .63639327 .355306 .64746096 .31884767 .64746096 .26090495 .64746096 .21280925 .62312826 .17456055 .5744629 .13631185 .52579757 .1171875 .45361329 .1171875 .35791017 .1171875 .26350913 .13655599 .19181316 .17529297 .14282227 .21402996 .09383138 .2618815 .06933594 .31884767 .06933594 .3461914 .06933594 .37223307 .075683597 .39697267 .088378909 .37288413 .10758463 .34716798 .12125651 .31982423 .12939453L.3388672 .19824219Z"/>
		<path id="font_1_27" d="M.032714845 .18847656 .10839844 .1953125C.11425781 .14990235 .12752278 .11608887 .14819336 .09387207 .16886394 .07165527 .1928711 .060546876 .22021485 .060546876 .25439454 .060546876 .28385417 .07625326 .30859376 .107666019 .33333335 .13907878 .34570313 .18196614 .34570313 .23632813 .34570313 .2874349 .33374024 .32706706 .30981446 .3552246 .28588868 .38338218 .25585938 .39746095 .21972656 .39746095 .19791667 .39746095 .17749024 .39138285 .15844727 .37922669 .1394043 .3670807 .12434896 .3501536 .11328125 .32844544L.045410158 .33918763 .10253906 .70703127H.39404298V.6230469H.16015625L.12841797 .4303589C.1632487 .46051026 .20019531 .47558595 .23925781 .47558595 .28841148 .47558595 .33113609 .45465089 .36743165 .41278077 .4037272 .37091065 .421875 .31445823 .421875 .24342346 .421875 .17336528 .4037272 .11332703 .36743165 .063308719 .33113609 .013290405 .2823893-.01171875 .2211914-.01171875 .17041016-.01171875 .12752278 .0059814455 .0925293 .041381837 .05753581 .0767924 .037597658 .12582398 .032714845 .18847656Z"/>
		<path id="font_1_29" d="M.06347656 0V.7158203H.28466798C.3367513 .7158203 .37516276 .711263 .39990235 .70214846 .4337565 .6897786 .46077476 .6668294 .48095704 .6333008 .50113937 .59977218 .51123049 .55859377 .51123049 .5097656 .51123049 .4453125 .49479167 .39274089 .46191407 .35205079 .42903648 .3113607 .37223307 .29101563 .2915039 .29101563H.14111328V0H.06347656M.14111328 .37597657H.29296876C.3408203 .37597657 .3758138 .38675944 .39794923 .4083252 .42008464 .42989097 .43115235 .46239726 .43115235 .5058441 .43115235 .5340627 .42569987 .5582225 .41479493 .57832339 .40388999 .59843447 .3907064 .6122182 .37524415 .6196747 .3597819 .62713119 .3318685 .6308594 .2915039 .6308594H.14111328V.37597657Z"/>
		<path id="font_1_30" d="M.34375 .16796875 .41796876 .15625C.40559898 .100748699 .3832194 .058878583 .35083009 .030639649 .31844078 .002400716 .2783203-.01171875 .23046875-.01171875 .17024739-.01171875 .12150065 .011149089 .084228519 .056884767 .04695638 .102620448 .028320313 .1686198 .028320313 .2548828 .028320313 .34440104 .04711914 .41267906 .0847168 .4597168 .12231445 .5067546 .16992188 .53027346 .22753906 .53027346 .2825521 .53027346 .32845054 .5071971 .36523438 .4610443 .40201823 .41490174 .42041017 .3481191 .42041017 .2606964L.41992188 .23730469H.10253906C.10546875 .1788737 .11897787 .13480632 .1430664 .10510254 .16715496 .075398769 .19645183 .060546876 .23095703 .060546876 .2849935 .060546876 .32259117 .096354167 .34375 .16796875M.106933597 .3095703H.34423829C.34098307 .35434977 .33138023 .3877665 .3154297 .40982057 .29231773 .4419454 .26285807 .4580078 .22705078 .4580078 .19482422 .4580078 .1673177 .44462077 .14453125 .41784669 .12174479 .39108277 .10921224 .35499064 .106933597 .3095703Z"/>
		<path id="font_1_31" d="M.052734376-.19921875V.5185547H.118652347V.45069886C.13492839 .4788564 .1529948 .49915568 .17285156 .5115967 .19270833 .52404788 .2154948 .53027346 .24121094 .53027346 .2747396 .53027346 .30501304 .52034506 .33203126 .5004883 .35904948 .4806315 .38077799 .45043946 .3972168 .4099121 .4136556 .36938478 .421875 .32063804 .421875 .26367188 .421875 .17545574 .4034017 .10750326 .36645509 .059814454 .32950846 .012125651 .2861328-.01171875 .23632813-.01171875 .2141927-.01171875 .19352214-.0060221354 .1743164 .0053710939 .15511067 .016764323 .13850911 .032877607 .12451172 .053710939V-.19921875H.052734376M.11767578 .25610353C.11767578 .18912761 .12890625 .13979085 .15136719 .10809326 .17382813 .07639567 .20100911 .060546876 .23291016 .060546876 .26350913 .060546876 .2903646 .07696533 .31347657 .109802249 .33658854 .14263916 .34814454 .19335938 .34814454 .2619629 .34814454 .32958985 .33691407 .37965904 .31445313 .4121704 .2919922 .4446818 .26464845 .4609375 .23242188 .4609375 .20345052 .4609375 .17708333 .4434611 .15332031 .4085083 .1295573 .3735555 .11767578 .3227539 .11767578 .25610353Z"/>
		<path id="font_1_32" d="M.05078125 0V.7158203H.122558597V0H.05078125Z"/>
		<path id="font_1_33" d="M.33007813 .064453128C.3059896 .03922526 .28092448 .020222983 .2548828 .007446289 .22884114-.005330404 .20182292-.01171875 .17382813-.01171875 .1295573-.01171875 .09423828 .0016682943 .067871097 .028442383 .041503908 .055226644 .028320313 .091308597 .028320313 .13668823 .028320313 .16673787 .034505208 .1933543 .046875 .21653748 .059244794 .23972066 .076171878 .25784303 .09765625 .27090455 .119140628 .28396607 .1516927 .29359947 .1953125 .2998047 .25390626 .30826823 .296875 .31835938 .32421876 .33007813L.32470704 .3524475C.32470704 .38779704 .31835938 .41260783 .30566407 .42687989 .2877604 .44763185 .2602539 .4580078 .22314453 .4580078 .18961589 .4580078 .16455078 .4510193 .14794922 .43704225 .13134766 .42307536 .119140628 .39686076 .111328128 .35839845L.040527345 .37109376C.05061849 .42658488 .07104492 .46698509 .10180664 .4922943 .13256836 .5176137 .17659505 .53027346 .23388672 .53027346 .27848307 .53027346 .31347657 .5218913 .3388672 .50512698 .3642578 .48836265 .3802897 .4676107 .3869629 .4428711 .39363609 .4181315 .39697267 .3819987 .39697267 .33447267V.21728516C.39697267 .1352539 .3985189 .08357748 .40161134 .06225586 .40470378 .040934247 .41080729 .020182291 .41992188 0H.34472657C.3372396 .018035889 .33235679 .039520265 .33007813 .064453128M.32421876 .2607422C.29785157 .24772136 .2586263 .23665364 .20654297 .22753906 .17626953 .22233074 .15511067 .21638997 .1430664 .2097168 .13102214 .20304363 .121663417 .19360352 .114990238 .18139649 .108317058 .16918946 .10498047 .15511067 .10498047 .13916016 .10498047 .11442057 .11263021 .09464518 .12792969 .079833988 .14322917 .06502279 .16438802 .057617189 .19140625 .057617189 .21712239 .057617189 .24047852 .06429037 .2614746 .07763672 .2824707 .09098307 .2981771 .108805339 .30859376 .13110352 .3190104 .15340169 .32421876 .18587239 .32421876 .22851563V.2607422Z"/>
		<path id="font_1_34" d="M.33154298 .19042969 .40234376 .17871094C.39420573 .11686198 .3737793 .06966146 .34106446 .037109376 .3083496 .0045572917 .26904298-.01171875 .22314453-.01171875 .16748047-.01171875 .121663417 .011149089 .08569336 .056884767 .04972331 .102620448 .03173828 .17024739 .03173828 .25976563 .03173828 .3499349 .049886068 .41756187 .08618164 .46264649 .12247721 .50773116 .16910808 .53027346 .22607422 .53027346 .27001954 .53027346 .30704753 .51660159 .3371582 .4892578 .3672689 .46191407 .386556 .42089845 .39501954 .36621095L.3251953 .35351563C.31835938 .38850913 .30647788 .41467286 .28955079 .43200685 .2726237 .44934083 .25227867 .4580078 .22851563 .4580078 .19303386 .4580078 .1636556 .44230143 .14038086 .41088868 .11710612 .37947593 .10546875 .32958985 .10546875 .26123048 .10546875 .19059246 .116617839 .13948567 .13891602 .107910159 .16121419 .07633463 .18977864 .060546876 .22460938 .060546876 .25195313 .060546876 .27530924 .07108561 .29467774 .092163089 .31404624 .11324056 .32633464 .1459961 .33154298 .19042969Z"/>
		<path id="font_1_35" d="M.075683597 .41796876V.5185547H.15771485V.41796876H.075683597M.075683597 0V.10058594H.15771485V0H.075683597Z"/>
		<path id="font_1_36" d="M.052734376 0V.5185547H.11767578V.4399414C.13427735 .47639976 .14949544 .50056967 .16333008 .5124512 .17716472 .5243327 .19270833 .53027346 .20996094 .53027346 .23404949 .53027346 .2586263 .5208333 .2836914 .5019531L.25927735 .41992188C.2413737 .43294273 .22395833 .43945313 .20703125 .43945313 .19173177 .43945313 .17773438 .43408204 .16503906 .42333985 .15234375 .41259767 .14339192 .3976237 .1381836 .37841798 .12906902 .3448893 .12451172 .30924479 .12451172 .27148438V0H.052734376Z"/>
		<path id="font_1_37" d="M.052734376 .6142578V.7158203H.12451172V.6142578H.052734376M.052734376 0V.5185547H.12451172V0H.052734376Z"/>
		<path id="font_1_38" d="M.0390625-.04296875 .109375-.055664064C.11263021-.08365885 .122395839-.10449219 .13867188-.11816406 .15494792-.13183594 .17757161-.13867188 .20654297-.13867188 .23811849-.13867188 .26326499-.13108318 .28198243-.11590576 .30069987-.100728359 .31347657-.07813009 .3203125-.048110963 .32454429-.029841105 .32666017 .008666992 .32666017 .06741333 .31103517 .04510498 .29345704 .028289795 .27392579 .016967774 .25439454 .0056559245 .23274739 0 .20898438 0 .15820313 0 .11604818 .021484375 .08251953 .064453128 .044108076 .11393229 .024902344 .18017578 .024902344 .2631836 .024902344 .31884767 .033365888 .36751304 .05029297 .4091797 .067220058 .45084635 .08943685 .4814453 .11694336 .50097659 .14444988 .5205078 .17529297 .53027346 .20947266 .53027346 .23453777 .53027346 .2574056 .5241292 .27807618 .5118408 .29874674 .4995524 .31705729 .48111979 .3330078 .45654298V.5185547H.39941407V.070007327C.39941407-.009796143 .39290367-.066716518 .3798828-.100753787 .36686198-.13479106 .34554038-.16166179 .31591798-.18136597 .28629557-.20108032 .25065104-.2109375 .20898438-.2109375 .15397136-.2109375 .11165365-.19608052 .08203125-.16636658 .052408857-.1366628 .038085939-.09553019 .0390625-.04296875M.099121097 .26856996C.099121097 .20036316 .11035156 .15059407 .1328125 .119262699 .15527344 .08793131 .18277996 .072265628 .21533203 .072265628 .24788411 .072265628 .27555339 .08760071 .29833985 .118270877 .3211263 .14895122 .33251954 .19774373 .33251954 .26464845 .33251954 .32991538 .32080079 .37845866 .29736329 .41027833 .27392579 .442098 .2454427 .4580078 .21191406 .4580078 .18196614 .4580078 .15568035 .442098 .13305664 .41027833 .110432948 .37845866 .099121097 .33122254 .099121097 .26856996Z"/>
		<path id="font_1_39" d="M.052734376 0V.5185547H.11767578V.44482423C.13330078 .47347007 .15242513 .49487306 .17504883 .5090332 .19767253 .52319338 .22363281 .53027346 .2529297 .53027346 .27571617 .53027346 .2967936 .52579757 .3161621 .5168457 .3355306 .50789389 .3511556 .49617515 .3630371 .48168946 .3749186 .46720378 .38378907 .44840495 .38964845 .42529298 .3955078 .402181 .3984375 .36669923 .3984375 .31884767V0H.32617188V.3154297C.32617188 .35351563 .32291667 .38134767 .31640626 .39892579 .30989585 .4165039 .2997233 .4300944 .28588868 .43969728 .27205406 .44930015 .25602214 .45410157 .23779297 .45410157 .20328777 .45410157 .17578125 .4412435 .15527344 .41552735 .13476563 .3898112 .12451172 .34570313 .12451172 .28320313V0H.052734376Z"/>
		<path id="font_1_40" d="M.068847659 0V.7158203H.46484376V.6308594H.14648438V.41015626H.421875V.3251953H.14648438V0H.068847659Z"/>
		<path id="font_1_41" d="M.053710939 0V.5185547H.11816406V.44580079C.13248699 .472819 .1508789 .49365235 .17333985 .5083008 .19580078 .5229492 .22037761 .53027346 .24707031 .53027346 .27701823 .53027346 .30232749 .5225423 .32299806 .5070801 .3436686 .49161784 .35839845 .46907554 .3671875 .43945313 .3841146 .46972657 .40356446 .49243165 .4255371 .50756838 .44750978 .5227051 .47184245 .53027346 .49853517 .53027346 .5392253 .53027346 .57128909 .5164388 .59472659 .48876954 .61816409 .46110026 .6298828 .41682945 .6298828 .35595704V0H.55810549V.32666017C.55810549 .36376954 .5554199 .39005534 .5500488 .40551759 .54467776 .42097984 .53597006 .43294273 .5239258 .44140626 .51188156 .44986979 .4983724 .45410157 .48339845 .45410157 .45247398 .45410157 .4272461 .44181315 .40771485 .41723634 .3881836 .39265953 .37841798 .3540039 .37841798 .30126954V0H.30615235V.33691407C.30615235 .3798828 .29956056 .41015626 .28637696 .42773438 .27319337 .4453125 .25504557 .45410157 .2319336 .45410157 .19905599 .45410157 .1730957 .44083659 .15405274 .41430665 .13500977 .3877767 .12548828 .33935548 .12548828 .26904298V0H.053710939Z"/>
		<path id="font_1_42" d="M.052734376 0V.7158203H.12451172V.4584961C.1414388 .48242188 .16056316 .5003662 .18188477 .5123291 .20320638 .524292 .22672527 .53027346 .2524414 .53027346 .2976888 .53027346 .3334147 .51586917 .35961915 .48706056 .38582359 .45825196 .39892579 .4054362 .39892579 .32861329V0H.32714845V.32826234C.32714845 .37313334 .3191732 .4053243 .30322267 .4248352 .28727214 .4443461 .26529948 .45410157 .23730469 .45410157 .20605469 .45410157 .17944336 .4415792 .1574707 .41653443 .13549805 .39149986 .12451172 .3471171 .12451172 .28338624V0H.052734376Z"/>
		<path id="font_1_45" d="M.22851563 0V.30322267L.0024414063 .7158203H.09716797L.21240235 .5000458C.2351888 .45741273 .25520835 .41705833 .27246095 .37898255 .28971354 .41640727 .31103517 .45855204 .33642579 .50541689L.4501953 .7158203H.54052737L.30615235 .30322267V0H.22851563Z"/>
		<path id="font_1_46" d="M.075683597 0V.10058594H.15771485V0H.075683597Z"/>
		<path id="font_1_16" d="M.26367188 0V.171875H.009277344V.2529297L.27734376 .7158203H.3359375V.2529297H.41552735V.171875H.3359375V0H.26367188M.26367188 .2529297V.57499697L.080078128 .2529297H.26367188Z"/>
		<path id="font_1_48" d="M.32861329 0V.06542969C.31559245 .040364583 .29882813 .021240235 .2783203 .008056641 .2578125-.005126953 .23567708-.01171875 .21191406-.01171875 .16178386-.01171875 .1184082 .011962891 .08178711 .059326173 .045166017 .10668945 .026855469 .17333985 .026855469 .25927735 .026855469 .31819663 .03499349 .36816407 .05126953 .4091797 .06754557 .4501953 .089274089 .4806315 .11645508 .5004883 .14363607 .52034506 .17382813 .53027346 .20703125 .53027346 .23079427 .53027346 .2528483 .52400717 .27319337 .5114746 .29353843 .49894206 .31038413 .4814453 .32373048 .45898438V.7158203H.3959961V0H.32861329M.10058594 .25878907C.10058594 .19173177 .112223308 .14192708 .13549805 .109375 .15877278 .076822917 .18587239 .060546876 .21679688 .060546876 .24739583 .060546876 .27392579 .076171878 .29638673 .107421878 .31884767 .13867188 .33007813 .18587239 .33007813 .24902344 .33007813 .3216146 .31884767 .3745931 .29638673 .40795899 .27392579 .44132487 .24560547 .4580078 .21142578 .4580078 .18115235 .4580078 .15511067 .44197593 .13330078 .4099121 .11149088 .3778483 .10058594 .32747398 .10058594 .25878907Z"/>
		<path id="font_1_49" d="M.2133789 .07910156 .22314453 .0009765625C.20328777-.004231771 .18538411-.0068359377 .1694336-.0068359377 .14436849-.0068359377 .124186199-.0018717448 .10888672 .008056641 .09358724 .017985026 .083089198 .03157552 .07739258 .048828126 .07169596 .06608073 .068847659 .10042318 .068847659 .15185547V.4501953H.016113282V.5185547H.068847659V.64746096L.140625 .7001953V.5185547H.2133789V.4501953H.140625V.14697266C.140625 .11897787 .14274089 .10091146 .14697266 .09277344 .15315755 .08105469 .16471355 .07519531 .18164063 .07519531 .18977864 .07519531 .20035808 .0764974 .2133789 .07910156Z"/>
		<path id="font_1_77" d="M.37158204 .48799134 .4111328 .5513153 .44970704 .51660159 .40673829 .44865418C.42399089 .41968284 .43570964 .39315797 .44189454 .3690796 .44970704 .33750407 .45361329 .30088807 .45361329 .25923158 .45361329 .16908264 .43473307 .10138448 .39697267 .056137086 .35921226 .010899861 .31054688-.01171875 .25097657-.01171875 .21028646-.01171875 .17366536 .0013122559 .14111328 .027374268L.099121097-.039108278 .061523439-.00390625 .10498047 .06498718C.08772787 .08907572 .07600912 .11316427 .06982422 .13725281 .060058595 .17337545 .05517578 .21161907 .05517578 .25198365 .05517578 .34507243 .07389323 .41472373 .111328128 .4609375 .14876302 .50716146 .19596355 .53027346 .2529297 .53027346 .2734375 .53027346 .292806 .52711489 .31103517 .5207977 .3292643 .5144806 .34944663 .5035451 .37158204 .48799134M.3310547 .4238739C.30664063 .44662986 .28108726 .4580078 .25439454 .4580078 .21988933 .4580078 .19034831 .44154359 .16577149 .4086151 .14119466 .37568666 .12890625 .32661949 .12890625 .26141358 .12890625 .21152751 .13590496 .16995748 .14990235 .13670349L.3310547 .4238739M.36083985 .37617494 .18164063 .091430667C.20214844 .07084147 .22558594 .060546876 .25195313 .060546876 .28841148 .060546876 .31884767 .07691447 .34326173 .10964966 .36767579 .14238484 .3798828 .19278972 .3798828 .26086427 .3798828 .2846476 .37858073 .30451966 .37597657 .32048036 .3733724 .33644105 .3683268 .3550059 .36083985 .37617494Z"/>
	</defs>
	<use data-text=" " xlink:href="#font_1_22" transform="matrix(31.8898,0,0,-31.8898,2149.9249,1759.4089)"/>
	<use data-text=" " xlink:href="#font_1_22" transform="matrix(31.8898,0,0,-31.8898,2442.0355,1759.4089)"/>
	<use data-text=" " xlink:href="#font_1_22" transform="matrix(31.8898,0,0,-31.8898,2642.5267,1759.4089)"/>
	<use data-text=" " xlink:href="#font_1_22" transform="matrix(17.0079,0,0,-17.0079,2692.645,1714.653)"/>
	<use data-text=" " xlink:href="#font_1_22" transform="matrix(17.0079,0,0,-17.0079,2560.4246,1714.653)"/>
	<use data-text=" " xlink:href="#font_1_22" transform="matrix(17.0079,0,0,-17.0079,2435.1949,1714.653)"/>
	<use data-text=" " xlink:href="#font_1_22" transform="matrix(21.2598,0,0,-21.2598,2644.785,1687.838)"/>
	<use data-text=" " xlink:href="#font_1_22" transform="matrix(21.2598,0,0,-21.2598,2687.411,1687.838)"/>
	<g transform="matrix(.11778333,0,0,.11778322,1617.73,1894.1497)">
	</g>
	<path transform="matrix(1,0,0,-1,0,1965)" stroke-width=".7087" stroke-linecap="round" stroke-miterlimit="10" stroke-linejoin="miter" fill="none" stroke="#000000" d="M1022.46 1353.48V1276.94"/>
	<path transform="matrix(1,0,0,-1,0,1965)" stroke-width=".7087" stroke-linecap="round" stroke-miterlimit="10" stroke-linejoin="miter" fill="none" stroke="#000000" d="M1022.46 1231.59V1214.58"/>
	<path transform="matrix(1,0,0,-1,0,1965)" stroke-width=".7087" stroke-linecap="round" stroke-miterlimit="10" stroke-linejoin="miter" fill="none" stroke="#000000" d="M1067.81 1361.98V1276.94"/>
	<path transform="matrix(1,0,0,-1,0,1965)" stroke-width=".7087" stroke-linecap="round" stroke-miterlimit="10" stroke-linejoin="miter" fill="none" stroke="#000000" d="M1067.81 1231.59V1214.58"/>
	<path transform="matrix(1,0,0,-1,0,1965)" stroke-width=".7087" stroke-linecap="round" stroke-miterlimit="10" stroke-linejoin="miter" fill="none" stroke="#000000" d="M982.772 1361.98H1067.81"/>
	<path transform="matrix(1,0,0,-1,0,1965)" stroke-width=".7087" stroke-linecap="round" stroke-miterlimit="10" stroke-linejoin="miter" fill="none" stroke="#000000" d="M975.685 1353.48H1022.46"/>
	<path transform="matrix(1,0,0,-1,0,1965)" stroke-width=".7087" stroke-linecap="round" stroke-miterlimit="10" stroke-linejoin="miter" fill="none" stroke="#000000" d="M886.394 1361.98H926.079"/>
	<path transform="matrix(1,0,0,-1,0,1965)" stroke-width=".7087" stroke-linecap="round" stroke-miterlimit="10" stroke-linejoin="miter" fill="none" stroke="#000000" d="M886.394 1435.69V1361.98"/>
	<path transform="matrix(1,0,0,-1,0,1965)" stroke-width=".7087" stroke-linecap="round" stroke-miterlimit="10" stroke-linejoin="miter" fill="none" stroke="#000000" d="M1270.49 1237.26H1294.58"/>
	<path transform="matrix(1,0,0,-1,0,1965)" stroke-width=".7087" stroke-linecap="round" stroke-miterlimit="10" stroke-linejoin="miter" fill="none" stroke="#000000" d="M1294.58 1237.26V1157.89"/>
	<path transform="matrix(1,0,0,-1,0,1965)" stroke-width=".7087" stroke-linecap="round" stroke-miterlimit="10" stroke-linejoin="miter" fill="none" stroke="#000000" d="M1270.49 1089.86H1294.58"/>
	<path transform="matrix(1,0,0,-1,0,1965)" stroke-width=".7087" stroke-linecap="round" stroke-miterlimit="10" stroke-linejoin="miter" fill="none" stroke="#000000" d="M1294.58 1157.89V1089.86"/>
	<path transform="matrix(1,0,0,-1,0,1965)" stroke-width=".7087" stroke-linecap="round" stroke-miterlimit="10" stroke-linejoin="miter" fill="none" stroke="#000000" d="M682.299 1250.02V1157.89"/>
	<path transform="matrix(1,0,0,-1,0,1965)" stroke-width=".7087" stroke-linecap="round" stroke-miterlimit="10" stroke-linejoin="miter" fill="none" stroke="#000000" d="M682.299 1418.68V1292.54"/>
	<path transform="matrix(1,0,0,-1,0,1965)" stroke-width=".7087" stroke-linecap="round" stroke-miterlimit="10" stroke-linejoin="miter" fill="none" stroke="#000000" d="M682.299 1011.91V987.811"/>
	<path transform="matrix(1,0,0,-1,0,1965)" stroke-width=".7087" stroke-linecap="round" stroke-miterlimit="10" stroke-linejoin="miter" fill="none" stroke="#000000" d="M682.299 1157.89V1054.43"/>
	<path transform="matrix(1,0,0,-1,0,1965)" stroke-width=".7087" stroke-linecap="round" stroke-miterlimit="10" stroke-linejoin="miter" fill="none" stroke="#000000" d="M682.299 1157.89H740.409"/>
	<path transform="matrix(1,0,0,-1,0,1965)" stroke-width=".7087" stroke-linecap="round" stroke-miterlimit="10" stroke-linejoin="miter" fill="none" stroke="#000000" d="M782.929 1157.89H841.039"/>
	<path transform="matrix(1,0,0,-1,0,1965)" stroke-width=".7087" stroke-linecap="round" stroke-miterlimit="10" stroke-linejoin="miter" fill="none" stroke="#000000" d="M1294.58 1157.89H1341.35"/>
	<path transform="matrix(1,0,0,-1,0,1965)" stroke-width=".7087" stroke-linecap="round" stroke-miterlimit="10" stroke-linejoin="miter" fill="none" stroke="#000000" d="M1383.87 1157.89H1430.65"/>
	<path transform="matrix(1,0,0,-1,0,1965)" stroke-width=".7087" stroke-linecap="round" stroke-miterlimit="10" stroke-linejoin="miter" fill="none" stroke="#000000" d="M1430.65 1418.68V1157.89"/>
	<path transform="matrix(1,0,0,-1,0,1965)" stroke-width=".7087" stroke-linecap="round" stroke-miterlimit="10" stroke-linejoin="miter" fill="none" stroke="#000000" d="M1430.65 1157.89V987.811"/>
	<path transform="matrix(1,0,0,-1,0,1965)" stroke-width=".3685" stroke-linecap="round" stroke-miterlimit="10" stroke-linejoin="miter" fill="none" stroke="#000000" d="M841.039 1101.2H1169.86"/>
	<path transform="matrix(1,0,0,-1,0,1965)" stroke-width=".3685" stroke-linecap="round" stroke-miterlimit="10" stroke-linejoin="miter" fill="none" stroke="#000000" d="M1169.86 1214.58V1101.2"/>
	<path transform="matrix(1,0,0,-1,0,1965)" stroke-width=".3685" stroke-linecap="round" stroke-miterlimit="10" stroke-linejoin="miter" fill="none" stroke="#000000" d="M841.039 1214.58H1169.86"/>
	<path transform="matrix(1,0,0,-1,0,1965)" stroke-width=".3685" stroke-linecap="round" stroke-miterlimit="10" stroke-linejoin="miter" fill="none" stroke="#000000" d="M841.039 1214.58V1101.2"/>
	<path transform="matrix(1,0,0,-1,0,1965)" stroke-width=".7087" stroke-linecap="round" stroke-miterlimit="10" stroke-linejoin="miter" fill="none" stroke="#000000" d="M1022.46 1242.93C1019.33 1242.93 1016.79 1240.39 1016.79 1237.26 1016.79 1234.13 1019.33 1231.59 1022.46 1231.59"/>
	<path transform="matrix(1,0,0,-1,0,1965)" stroke-width=".7087" stroke-linecap="round" stroke-miterlimit="10" stroke-linejoin="miter" fill="none" stroke="#000000" d="M1022.46 1242.93C1025.59 1242.93 1028.13 1245.47 1028.13 1248.6 1028.13 1251.73 1025.59 1254.27 1022.46 1254.27"/>
	<path transform="matrix(1,0,0,-1,0,1965)" stroke-width=".7087" stroke-linecap="round" stroke-miterlimit="10" stroke-linejoin="miter" fill="none" stroke="#000000" d="M1022.46 1265.61C1019.33 1265.61 1016.79 1263.07 1016.79 1259.94 1016.79 1256.81 1019.33 1254.27 1022.46 1254.27"/>
	<path transform="matrix(1,0,0,-1,0,1965)" stroke-width=".7087" stroke-linecap="round" stroke-miterlimit="10" stroke-linejoin="miter" fill="none" stroke="#000000" d="M1022.46 1265.61C1025.59 1265.61 1028.13 1268.14 1028.13 1271.28 1028.13 1274.41 1025.59 1276.94 1022.46 1276.94"/>
	<path transform="matrix(1,0,0,-1,0,1965)" stroke-width=".7087" stroke-linecap="round" stroke-miterlimit="10" stroke-linejoin="miter" fill="none" stroke="#000000" d="M1016.79 1276.94H1028.13"/>
	<path transform="matrix(1,0,0,-1,0,1965)" stroke-width=".7087" stroke-linecap="round" stroke-miterlimit="10" stroke-linejoin="miter" fill="none" stroke="#000000" d="M1016.79 1231.59H1028.13"/>
	<path transform="matrix(1,0,0,-1,0,1965)" stroke-width=".7087" stroke-linecap="round" stroke-miterlimit="10" stroke-linejoin="miter" fill="none" stroke="#000000" d="M1067.81 1242.93C1064.68 1242.93 1062.14 1240.39 1062.14 1237.26 1062.14 1234.13 1064.68 1231.59 1067.81 1231.59"/>
	<path transform="matrix(1,0,0,-1,0,1965)" stroke-width=".7087" stroke-linecap="round" stroke-miterlimit="10" stroke-linejoin="miter" fill="none" stroke="#000000" d="M1067.81 1242.93C1070.94 1242.93 1073.48 1245.47 1073.48 1248.6 1073.48 1251.73 1070.94 1254.27 1067.81 1254.27"/>
	<path transform="matrix(1,0,0,-1,0,1965)" stroke-width=".7087" stroke-linecap="round" stroke-miterlimit="10" stroke-linejoin="miter" fill="none" stroke="#000000" d="M1067.81 1265.61C1064.68 1265.61 1062.14 1263.07 1062.14 1259.94 1062.14 1256.81 1064.68 1254.27 1067.81 1254.27"/>
	<path transform="matrix(1,0,0,-1,0,1965)" stroke-width=".7087" stroke-linecap="round" stroke-miterlimit="10" stroke-linejoin="miter" fill="none" stroke="#000000" d="M1067.81 1265.61C1070.94 1265.61 1073.48 1268.14 1073.48 1271.28 1073.48 1274.41 1070.94 1276.94 1067.81 1276.94"/>
	<path transform="matrix(1,0,0,-1,0,1965)" stroke-width=".7087" stroke-linecap="round" stroke-miterlimit="10" stroke-linejoin="miter" fill="none" stroke="#000000" d="M1062.14 1276.94H1073.48"/>
	<path transform="matrix(1,0,0,-1,0,1965)" stroke-width=".7087" stroke-linecap="round" stroke-miterlimit="10" stroke-linejoin="miter" fill="none" stroke="#000000" d="M1062.14 1231.59H1073.48"/>
	<path transform="matrix(1,0,0,-1,0,1965)" stroke-width=".7087" stroke-linecap="round" stroke-miterlimit="10" stroke-linejoin="miter" fill="none" stroke="#000000" d="M1062.14 1361.98H1067.81"/>
	<path transform="matrix(1,0,0,-1,0,1965)" stroke-width=".7087" stroke-linecap="round" stroke-miterlimit="10" stroke-linejoin="miter" fill="none" stroke="#000000" d="M1067.81 1361.98V1356.31"/>
	<path transform="matrix(1,0,0,-1,0,1965)" stroke-width=".7087" stroke-linecap="round" stroke-miterlimit="10" stroke-linejoin="miter" fill="none" stroke="#000000" d="M1016.79 1353.48H1022.46"/>
	<path transform="matrix(1,0,0,-1,0,1965)" stroke-width=".7087" stroke-linecap="round" stroke-miterlimit="10" stroke-linejoin="miter" fill="none" stroke="#000000" d="M1022.46 1353.48V1347.81"/>
	<use data-text="1" xlink:href="#font_1_1" transform="matrix(13.8189,0,0,-13.8189,931.12,631.36)"/>
	<use data-text="0" xlink:href="#font_1_4" transform="matrix(13.8189,0,0,-13.8189,937.4214,631.36)"/>
	<use data-text="X" xlink:href="#font_1_62" transform="matrix(13.8189,0,0,-13.8189,943.72286,631.36)"/>
	<use data-text="J" xlink:href="#font_1_56" transform="matrix(13.8189,0,0,-13.8189,951.2818,631.36)"/>
	<use data-text="R" xlink:href="#font_1_8" transform="matrix(13.8189,0,0,-13.8189,956.9475,631.36)"/>
	<use data-text="0" xlink:href="#font_1_4" transform="matrix(13.8189,0,0,-13.8189,965.1283,631.36)"/>
	<use data-text="1" xlink:href="#font_1_1" transform="matrix(13.8189,0,0,-13.8189,971.42977,631.36)"/>
	<use data-text="B" xlink:href="#font_1_44" transform="matrix(13.8189,0,0,-13.8189,937.414,647.20999)"/>
	<use data-text="S" xlink:href="#font_1_12" transform="matrix(13.8189,0,0,-13.8189,944.97299,647.20999)"/>
	<use data-text="0" xlink:href="#font_1_4" transform="matrix(13.8189,0,0,-13.8189,952.53189,647.20999)"/>
	<use data-text="0" xlink:href="#font_1_4" transform="matrix(13.8189,0,0,-13.8189,958.8333,647.20999)"/>
	<use data-text="1" xlink:href="#font_1_1" transform="matrix(13.8189,0,0,-13.8189,965.1347,647.20999)"/>
	<use data-text="1" xlink:href="#font_1_1" transform="matrix(.4252,0,0,-.4252,953.185,617.33999)"/>
	<use data-text="0" xlink:href="#font_1_4" transform="matrix(.4252,0,0,-.4252,953.3789,617.33999)"/>
	<use data-text="X" xlink:href="#font_1_62" transform="matrix(.4252,0,0,-.4252,953.57278,617.33999)"/>
	<use data-text="J" xlink:href="#font_1_56" transform="matrix(.4252,0,0,-.4252,953.80538,617.33999)"/>
	<use data-text="R" xlink:href="#font_1_8" transform="matrix(.4252,0,0,-.4252,953.9797,617.33999)"/>
	<use data-text="0" xlink:href="#font_1_4" transform="matrix(.4252,0,0,-.4252,954.23147,617.33999)"/>
	<use data-text="1" xlink:href="#font_1_1" transform="matrix(.4252,0,0,-.4252,954.4253,617.33999)"/>
	<use data-text="B" xlink:href="#font_1_44" transform="matrix(.4252,0,0,-.4252,954.6192,617.33999)"/>
	<use data-text="S" xlink:href="#font_1_12" transform="matrix(.4252,0,0,-.4252,954.8518,617.33999)"/>
	<use data-text="0" xlink:href="#font_1_4" transform="matrix(.4252,0,0,-.4252,955.08438,617.33999)"/>
	<use data-text="0" xlink:href="#font_1_4" transform="matrix(.4252,0,0,-.4252,955.27828,617.33999)"/>
	<use data-text="1" xlink:href="#font_1_1" transform="matrix(.4252,0,0,-.4252,955.47219,617.33999)"/>
	<path transform="matrix(1,0,0,-1,0,1965)" stroke-width=".7087" stroke-linecap="round" stroke-miterlimit="10" stroke-linejoin="miter" fill="none" stroke="#000000" d="M965.055 1361.98V1347.81"/>
	<path transform="matrix(1,0,0,-1,0,1965)" stroke-width=".7087" stroke-linecap="round" stroke-miterlimit="10" stroke-linejoin="miter" fill="none" stroke="#000000" d="M943.795 1361.98V1347.81"/>
	<path transform="matrix(1,0,0,-1,0,1965)" stroke-width=".7087" stroke-linecap="round" stroke-miterlimit="10" stroke-linejoin="miter" fill="none" stroke="#000000" d="M954.425 1376.16V1361.98"/>
	<path transform="matrix(1,0,0,-1,0,1965)" stroke-width=".7087" stroke-linecap="round" stroke-miterlimit="10" stroke-linejoin="miter" fill="none" stroke="#000000" d="M933.165 1347.81H975.685"/>
	<path transform="matrix(1,0,0,-1,0,1965)" stroke-width=".7087" stroke-linecap="round" stroke-miterlimit="10" stroke-linejoin="miter" fill="none" stroke="#000000" d="M975.685 1376.16V1347.81"/>
	<path transform="matrix(1,0,0,-1,0,1965)" stroke-width=".7087" stroke-linecap="round" stroke-miterlimit="10" stroke-linejoin="miter" fill="none" stroke="#000000" d="M933.165 1376.16H975.685"/>
	<path transform="matrix(1,0,0,-1,0,1965)" stroke-width=".7087" stroke-linecap="round" stroke-miterlimit="10" stroke-linejoin="miter" fill="none" stroke="#000000" d="M933.165 1376.16V1347.81"/>
	<path transform="matrix(1,0,0,-1,0,1965)" stroke-width=".7087" stroke-linecap="round" stroke-miterlimit="10" stroke-linejoin="miter" fill="none" stroke="#000000" d="M926.079 1361.98H933.165"/>
	<path transform="matrix(1,0,0,-1,0,1965)" stroke-width=".7087" stroke-linecap="round" stroke-miterlimit="10" stroke-linejoin="miter" fill="none" stroke="#000000" d="M975.685 1361.98H982.772"/>
	<path transform="matrix(1,0,0,-1,0,1965)" stroke-width=".7087" stroke-linecap="round" stroke-miterlimit="10" stroke-linejoin="miter" fill="none" stroke="#000000" d="M886.394 1367.65V1361.98"/>
	<path transform="matrix(1,0,0,-1,0,1965)" stroke-width=".7087" stroke-linecap="round" stroke-miterlimit="10" stroke-linejoin="miter" fill="none" stroke="#000000" d="M886.394 1361.98H892.063"/>
	<use data-text="" xlink:href="#font_1_77" transform="matrix(0,-13.8189,-13.8189,-0,1038.77,672.62)"/>
	<use data-text="1" xlink:href="#font_1_1" transform="matrix(0,-13.8189,-13.8189,-0,1038.77,665.6967)"/>
	<use data-text="5" xlink:href="#font_1_27" transform="matrix(0,-13.8189,-13.8189,-0,1038.77,659.3953)"/>
	<use data-text="0" xlink:href="#font_1_4" transform="matrix(0,-13.8189,-13.8189,-0,1038.77,653.0939)"/>
	<use data-text="" xlink:href="#font_1_77" transform="matrix(0,-13.8189,-13.8189,-0,1084.13,672.62)"/>
	<use data-text="1" xlink:href="#font_1_1" transform="matrix(0,-13.8189,-13.8189,-0,1084.13,665.6967)"/>
	<use data-text="5" xlink:href="#font_1_27" transform="matrix(0,-13.8189,-13.8189,-0,1084.13,659.3953)"/>
	<use data-text="0" xlink:href="#font_1_4" transform="matrix(0,-13.8189,-13.8189,-0,1084.13,653.0939)"/>
	<use data-text="X" xlink:href="#font_1_62" transform="matrix(21.2598,0,0,-21.2598,1109.45,811.37)"/>
	<use data-text="J" xlink:href="#font_1_56" transform="matrix(21.2598,0,0,-21.2598,1121.0791,811.37)"/>
	<use data-text="A" xlink:href="#font_1_10" transform="matrix(21.2598,0,0,-21.2598,1129.7955,811.37)"/>
	<use data-text="" xlink:href="#font_1_77" transform="matrix(0,-13.8189,-13.8189,-0,902.709,593.25)"/>
	<use data-text="3" xlink:href="#font_1_5" transform="matrix(0,-13.8189,-13.8189,-0,902.709,586.3267)"/>
	<use data-text="0" xlink:href="#font_1_4" transform="matrix(0,-13.8189,-13.8189,-0,902.709,580.0253)"/>
	<use data-text="0" xlink:href="#font_1_4" transform="matrix(0,-13.8189,-13.8189,-0,902.709,573.7239)"/>
	<path transform="matrix(1,0,0,-1,0,1965)" stroke-width=".7087" stroke-linecap="round" stroke-miterlimit="10" stroke-linejoin="miter" fill="none" stroke="#000000" d="M1288.91 1237.26H1294.58"/>
	<path transform="matrix(1,0,0,-1,0,1965)" stroke-width=".7087" stroke-linecap="round" stroke-miterlimit="10" stroke-linejoin="miter" fill="none" stroke="#000000" d="M1294.58 1237.26V1231.59"/>
	<path transform="matrix(1,0,0,-1,0,1965)" stroke-width=".7087" stroke-linecap="round" stroke-miterlimit="10" stroke-linejoin="miter" fill="none" stroke="#000000" d="M1294.58 1095.53V1089.86"/>
	<path transform="matrix(1,0,0,-1,0,1965)" stroke-width=".7087" stroke-linecap="round" stroke-miterlimit="10" stroke-linejoin="miter" fill="none" stroke="#000000" d="M1288.91 1089.86H1294.58"/>
	<path transform="matrix(1,0,0,-1,0,1965)" stroke-width=".3685" stroke-linecap="butt" stroke-dasharray="14.1732,2.8346,2.8346,2.8346,2.8346,2.8346" stroke-miterlimit="10" stroke-linejoin="miter" fill="none" stroke="#000000" d="M625.606 987.811H1691.43"/>
	<path transform="matrix(1,0,0,-1,0,1965)" stroke-width=".3685" stroke-linecap="butt" stroke-dasharray="14.1732,2.8346,2.8346,2.8346,2.8346,2.8346" stroke-miterlimit="10" stroke-linejoin="miter" fill="none" stroke="#000000" d="M1691.43 1418.68V987.811"/>
	<path transform="matrix(1,0,0,-1,0,1965)" stroke-width=".3685" stroke-linecap="butt" stroke-dasharray="14.1732,2.8346,2.8346,2.8346,2.8346,2.8346" stroke-miterlimit="10" stroke-linejoin="miter" fill="none" stroke="#000000" d="M625.606 1418.68H1691.43"/>
	<path transform="matrix(1,0,0,-1,0,1965)" stroke-width=".3685" stroke-linecap="butt" stroke-dasharray="14.1732,2.8346,2.8346,2.8346,2.8346,2.8346" stroke-miterlimit="10" stroke-linejoin="miter" fill="none" stroke="#000000" d="M625.606 1418.68V987.811"/>
	<path transform="matrix(1,0,0,-1,0,1965)" stroke-width=".3685" stroke-linecap="butt" stroke-dasharray="14.1732,2.8346,2.8346,2.8346,2.8346,2.8346" stroke-miterlimit="10" stroke-linejoin="miter" fill="none" stroke="#000000" d="M1464.66 1418.68V987.811"/>
	<path transform="matrix(1,0,0,-1,0,1965)" stroke-width=".3685" stroke-linecap="round" stroke-miterlimit="10" stroke-linejoin="miter" fill="none" stroke="#000000" d="M1555.37 1350.65H1612.06"/>
	<path transform="matrix(1,0,0,-1,0,1965)" stroke-width=".3685" stroke-linecap="round" stroke-miterlimit="10" stroke-linejoin="miter" fill="none" stroke="#000000" d="M1612.06 1407.34V1350.65"/>
	<path transform="matrix(1,0,0,-1,0,1965)" stroke-width=".3685" stroke-linecap="round" stroke-miterlimit="10" stroke-linejoin="miter" fill="none" stroke="#000000" d="M1555.37 1407.34H1612.06"/>
	<path transform="matrix(1,0,0,-1,0,1965)" stroke-width=".3685" stroke-linecap="round" stroke-miterlimit="10" stroke-linejoin="miter" fill="none" stroke="#000000" d="M1555.37 1407.34V1350.65"/>
	<path transform="matrix(1,0,0,-1,0,1965)" stroke-width=".3685" stroke-linecap="round" stroke-miterlimit="10" stroke-linejoin="miter" fill="none" stroke="#000000" d="M1532.69 1373.32H1555.37"/>
	<path transform="matrix(1,0,0,-1,0,1965)" stroke-width=".3685" stroke-linecap="round" stroke-miterlimit="10" stroke-linejoin="miter" fill="none" stroke="#000000" d="M1532.69 1373.32V1316.63"/>
	<path transform="matrix(1,0,0,-1,0,1965)" stroke-width=".3685" stroke-linecap="round" stroke-miterlimit="10" stroke-linejoin="miter" fill="none" stroke="#000000" d="M1612.06 1373.32H1634.74"/>
	<path transform="matrix(1,0,0,-1,0,1965)" stroke-width=".3685" stroke-linecap="round" stroke-miterlimit="10" stroke-linejoin="miter" fill="none" stroke="#000000" d="M1634.74 1373.32V1316.63"/>
	<path transform="matrix(1,0,0,-1,0,1965)" stroke-width=".7087" stroke-linecap="round" stroke-miterlimit="10" stroke-linejoin="miter" fill="none" stroke="#000000" d="M682.299 1529.23V1441.35"/>
	<path transform="matrix(1,0,0,-1,0,1965)" stroke-width=".7087" stroke-linecap="round" stroke-miterlimit="10" stroke-linejoin="miter" fill="none" stroke="#000000" d="M1430.65 1532.06V1444.19"/>
	<path transform="matrix(1,0,0,-1,0,1965)" stroke-width=".7087" stroke-linecap="round" stroke-miterlimit="10" stroke-linejoin="miter" fill="none" stroke="#000000" d="M1430.65 962.299V874.425"/>
	<path transform="matrix(1,0,0,-1,0,1965)" stroke-width=".7087" stroke-linecap="round" stroke-miterlimit="10" stroke-linejoin="miter" fill="none" stroke="#000000" d="M682.299 965.134V877.26"/>
	<use data-text="1" xlink:href="#font_1_1" transform="matrix(.4252,0,0,-.4252,681.049,679.55007)"/>
	<use data-text="0" xlink:href="#font_1_4" transform="matrix(.4252,0,0,-.4252,681.2429,679.55007)"/>
	<use data-text="X" xlink:href="#font_1_62" transform="matrix(.4252,0,0,-.4252,681.43679,679.55007)"/>
	<use data-text="J" xlink:href="#font_1_56" transform="matrix(.4252,0,0,-.4252,681.6694,679.55007)"/>
	<use data-text="Q" xlink:href="#font_1_59" transform="matrix(.4252,0,0,-.4252,681.8437,679.55007)"/>
	<use data-text="0" xlink:href="#font_1_4" transform="matrix(.4252,0,0,-.4252,682.115,679.55007)"/>
	<use data-text="1" xlink:href="#font_1_1" transform="matrix(.4252,0,0,-.4252,682.3089,679.55007)"/>
	<use data-text="A" xlink:href="#font_1_10" transform="matrix(.4252,0,0,-.4252,682.50277,679.55007)"/>
	<use data-text="B" xlink:href="#font_1_44" transform="matrix(.4252,0,0,-.4252,682.73538,679.55007)"/>
	<use data-text="0" xlink:href="#font_1_4" transform="matrix(.4252,0,0,-.4252,682.96798,679.55007)"/>
	<use data-text="0" xlink:href="#font_1_4" transform="matrix(.4252,0,0,-.4252,683.1618,679.55007)"/>
	<use data-text="3" xlink:href="#font_1_5" transform="matrix(.4252,0,0,-.4252,683.3557,679.55007)"/>
	<use data-text="1" xlink:href="#font_1_1" transform="matrix(0,-13.8189,-13.8189,-0,702.142,717.35)"/>
	<use data-text="0" xlink:href="#font_1_4" transform="matrix(0,-13.8189,-13.8189,-0,702.142,711.0486)"/>
	<use data-text="X" xlink:href="#font_1_62" transform="matrix(0,-13.8189,-13.8189,-0,702.142,704.74716)"/>
	<use data-text="J" xlink:href="#font_1_56" transform="matrix(0,-13.8189,-13.8189,-0,702.142,697.1882)"/>
	<use data-text="Q" xlink:href="#font_1_59" transform="matrix(0,-13.8189,-13.8189,-0,702.142,691.52249)"/>
	<use data-text="0" xlink:href="#font_1_4" transform="matrix(0,-13.8189,-13.8189,-0,702.142,682.706)"/>
	<use data-text="1" xlink:href="#font_1_1" transform="matrix(0,-13.8189,-13.8189,-0,702.142,676.40457)"/>
	<use data-text="A" xlink:href="#font_1_10" transform="matrix(0,-13.8189,-13.8189,-0,717.992,710.74)"/>
	<use data-text="B" xlink:href="#font_1_44" transform="matrix(0,-13.8189,-13.8189,-0,717.992,703.181)"/>
	<use data-text="0" xlink:href="#font_1_4" transform="matrix(0,-13.8189,-13.8189,-0,717.992,695.62216)"/>
	<use data-text="0" xlink:href="#font_1_4" transform="matrix(0,-13.8189,-13.8189,-0,717.992,689.3207)"/>
	<use data-text="3" xlink:href="#font_1_5" transform="matrix(0,-13.8189,-13.8189,-0,717.992,683.0193)"/>
	<path transform="matrix(1,0,0,-1,0,1965)" stroke-width=".7087" stroke-linecap="round" stroke-miterlimit="10" stroke-linejoin="miter" fill="none" stroke="#000000" d="M668.126 1271.28C668.126 1275.19 664.953 1278.36 661.039 1278.36 657.126 1278.36 653.953 1275.19 653.953 1271.28 653.953 1267.36 657.126 1264.19 661.039 1264.19 664.953 1264.19 668.126 1267.36 668.126 1271.28Z"/>
	<path transform="matrix(1,0,0,-1,0,1965)" stroke-width=".7087" stroke-linecap="round" stroke-miterlimit="10" stroke-linejoin="miter" fill="none" stroke="#000000" d="M668.126 1271.28H682.299"/>
	<path transform="matrix(1,0,0,-1,0,1965)" stroke-width=".7087" stroke-linecap="round" stroke-miterlimit="10" stroke-linejoin="miter" fill="none" stroke="#000000" d="M658.205 1275.53V1267.02"/>
	<path transform="matrix(1,0,0,-1,0,1965)" stroke-width=".7087" stroke-linecap="round" stroke-miterlimit="10" stroke-linejoin="miter" fill="none" stroke="#000000" d="M658.205 1275.53 661.039 1271.28"/>
	<path transform="matrix(1,0,0,-1,0,1965)" stroke-width=".7087" stroke-linecap="round" stroke-miterlimit="10" stroke-linejoin="miter" fill="none" stroke="#000000" d="M661.039 1271.28 663.874 1275.53"/>
	<path transform="matrix(1,0,0,-1,0,1965)" stroke-width=".7087" stroke-linecap="round" stroke-miterlimit="10" stroke-linejoin="miter" fill="none" stroke="#000000" d="M663.874 1275.53V1267.02"/>
	<path transform="matrix(1,0,0,-1,0,1965)" stroke-width=".7087" stroke-linecap="round" stroke-miterlimit="10" stroke-linejoin="miter" fill="none" stroke="#000000" d="M675.213 1257.1H689.386"/>
	<path transform="matrix(1,0,0,-1,0,1965)" stroke-width=".7087" stroke-linecap="round" stroke-miterlimit="10" stroke-linejoin="miter" fill="none" stroke="#000000" d="M689.386 1285.45V1257.1"/>
	<path transform="matrix(1,0,0,-1,0,1965)" stroke-width=".7087" stroke-linecap="round" stroke-miterlimit="10" stroke-linejoin="miter" fill="none" stroke="#000000" d="M675.213 1285.45H689.386"/>
	<path transform="matrix(1,0,0,-1,0,1965)" stroke-width=".7087" stroke-linecap="round" stroke-miterlimit="10" stroke-linejoin="miter" fill="none" stroke="#000000" d="M675.213 1285.45V1257.1"/>
	<path transform="matrix(1,0,0,-1,0,1965)" stroke-width=".7087" stroke-linecap="round" stroke-miterlimit="10" stroke-linejoin="miter" fill="none" stroke="#000000" d="M675.213 1257.1 689.386 1285.45"/>
	<path transform="matrix(1,0,0,-1,0,1965)" stroke-width=".7087" stroke-linecap="round" stroke-miterlimit="10" stroke-linejoin="miter" fill="none" stroke="#000000" d="M682.299 1292.54V1285.45"/>
	<path transform="matrix(1,0,0,-1,0,1965)" stroke-width=".7087" stroke-linecap="round" stroke-miterlimit="10" stroke-linejoin="miter" fill="none" stroke="#000000" d="M682.299 1257.1V1250.02"/>
	<path transform="matrix(1,0,0,-1,0,1965)" d="M685.488 1271.28C685.488 1273.04 684.06 1274.46 682.299 1274.46 680.538 1274.46 679.11 1273.04 679.11 1271.28 679.11 1269.51 680.538 1268.09 682.299 1268.09 684.06 1268.09 685.488 1269.51 685.488 1271.28Z"/>
	<use data-text="1" xlink:href="#font_1_1" transform="matrix(.4252,0,0,-.4252,681.049,917.66006)"/>
	<use data-text="0" xlink:href="#font_1_4" transform="matrix(.4252,0,0,-.4252,681.2429,917.66006)"/>
	<use data-text="X" xlink:href="#font_1_62" transform="matrix(.4252,0,0,-.4252,681.43679,917.66006)"/>
	<use data-text="J" xlink:href="#font_1_56" transform="matrix(.4252,0,0,-.4252,681.6694,917.66006)"/>
	<use data-text="Q" xlink:href="#font_1_59" transform="matrix(.4252,0,0,-.4252,681.8437,917.66006)"/>
	<use data-text="0" xlink:href="#font_1_4" transform="matrix(.4252,0,0,-.4252,682.115,917.66006)"/>
	<use data-text="1" xlink:href="#font_1_1" transform="matrix(.4252,0,0,-.4252,682.3089,917.66006)"/>
	<use data-text="A" xlink:href="#font_1_10" transform="matrix(.4252,0,0,-.4252,682.50277,917.66006)"/>
	<use data-text="B" xlink:href="#font_1_44" transform="matrix(.4252,0,0,-.4252,682.73538,917.66006)"/>
	<use data-text="0" xlink:href="#font_1_4" transform="matrix(.4252,0,0,-.4252,682.96798,917.66006)"/>
	<use data-text="0" xlink:href="#font_1_4" transform="matrix(.4252,0,0,-.4252,683.1618,917.66006)"/>
	<use data-text="4" xlink:href="#font_1_16" transform="matrix(.4252,0,0,-.4252,683.3557,917.66006)"/>
	<use data-text="1" xlink:href="#font_1_1" transform="matrix(0,-13.8189,-13.8189,-0,702.142,955.46)"/>
	<use data-text="0" xlink:href="#font_1_4" transform="matrix(0,-13.8189,-13.8189,-0,702.142,949.1586)"/>
	<use data-text="X" xlink:href="#font_1_62" transform="matrix(0,-13.8189,-13.8189,-0,702.142,942.8572)"/>
	<use data-text="J" xlink:href="#font_1_56" transform="matrix(0,-13.8189,-13.8189,-0,702.142,935.2982)"/>
	<use data-text="Q" xlink:href="#font_1_59" transform="matrix(0,-13.8189,-13.8189,-0,702.142,929.6325)"/>
	<use data-text="0" xlink:href="#font_1_4" transform="matrix(0,-13.8189,-13.8189,-0,702.142,920.81607)"/>
	<use data-text="1" xlink:href="#font_1_1" transform="matrix(0,-13.8189,-13.8189,-0,702.142,914.51467)"/>
	<use data-text="A" xlink:href="#font_1_10" transform="matrix(0,-13.8189,-13.8189,-0,717.992,948.85)"/>
	<use data-text="B" xlink:href="#font_1_44" transform="matrix(0,-13.8189,-13.8189,-0,717.992,941.291)"/>
	<use data-text="0" xlink:href="#font_1_4" transform="matrix(0,-13.8189,-13.8189,-0,717.992,933.7321)"/>
	<use data-text="0" xlink:href="#font_1_4" transform="matrix(0,-13.8189,-13.8189,-0,717.992,927.43069)"/>
	<use data-text="4" xlink:href="#font_1_16" transform="matrix(0,-13.8189,-13.8189,-0,717.992,921.1293)"/>
	<path transform="matrix(1,0,0,-1,0,1965)" stroke-width=".7087" stroke-linecap="round" stroke-miterlimit="10" stroke-linejoin="miter" fill="none" stroke="#000000" d="M668.126 1033.17C668.126 1037.08 664.953 1040.25 661.039 1040.25 657.126 1040.25 653.953 1037.08 653.953 1033.17 653.953 1029.25 657.126 1026.08 661.039 1026.08 664.953 1026.08 668.126 1029.25 668.126 1033.17Z"/>
	<path transform="matrix(1,0,0,-1,0,1965)" stroke-width=".7087" stroke-linecap="round" stroke-miterlimit="10" stroke-linejoin="miter" fill="none" stroke="#000000" d="M668.126 1033.17H682.299"/>
	<path transform="matrix(1,0,0,-1,0,1965)" stroke-width=".7087" stroke-linecap="round" stroke-miterlimit="10" stroke-linejoin="miter" fill="none" stroke="#000000" d="M658.205 1037.42V1028.91"/>
	<path transform="matrix(1,0,0,-1,0,1965)" stroke-width=".7087" stroke-linecap="round" stroke-miterlimit="10" stroke-linejoin="miter" fill="none" stroke="#000000" d="M658.205 1037.42 661.039 1033.17"/>
	<path transform="matrix(1,0,0,-1,0,1965)" stroke-width=".7087" stroke-linecap="round" stroke-miterlimit="10" stroke-linejoin="miter" fill="none" stroke="#000000" d="M661.039 1033.17 663.874 1037.42"/>
	<path transform="matrix(1,0,0,-1,0,1965)" stroke-width=".7087" stroke-linecap="round" stroke-miterlimit="10" stroke-linejoin="miter" fill="none" stroke="#000000" d="M663.874 1037.42V1028.91"/>
	<path transform="matrix(1,0,0,-1,0,1965)" stroke-width=".7087" stroke-linecap="round" stroke-miterlimit="10" stroke-linejoin="miter" fill="none" stroke="#000000" d="M675.213 1018.99H689.386"/>
	<path transform="matrix(1,0,0,-1,0,1965)" stroke-width=".7087" stroke-linecap="round" stroke-miterlimit="10" stroke-linejoin="miter" fill="none" stroke="#000000" d="M689.386 1047.34V1018.99"/>
	<path transform="matrix(1,0,0,-1,0,1965)" stroke-width=".7087" stroke-linecap="round" stroke-miterlimit="10" stroke-linejoin="miter" fill="none" stroke="#000000" d="M675.213 1047.34H689.386"/>
	<path transform="matrix(1,0,0,-1,0,1965)" stroke-width=".7087" stroke-linecap="round" stroke-miterlimit="10" stroke-linejoin="miter" fill="none" stroke="#000000" d="M675.213 1047.34V1018.99"/>
	<path transform="matrix(1,0,0,-1,0,1965)" stroke-width=".7087" stroke-linecap="round" stroke-miterlimit="10" stroke-linejoin="miter" fill="none" stroke="#000000" d="M675.213 1018.99 689.386 1047.34"/>
	<path transform="matrix(1,0,0,-1,0,1965)" stroke-width=".7087" stroke-linecap="round" stroke-miterlimit="10" stroke-linejoin="miter" fill="none" stroke="#000000" d="M682.299 1054.43V1047.34"/>
	<path transform="matrix(1,0,0,-1,0,1965)" stroke-width=".7087" stroke-linecap="round" stroke-miterlimit="10" stroke-linejoin="miter" fill="none" stroke="#000000" d="M682.299 1018.99V1011.91"/>
	<path transform="matrix(1,0,0,-1,0,1965)" d="M685.488 1033.17C685.488 1034.93 684.06 1036.35 682.299 1036.35 680.538 1036.35 679.11 1034.93 679.11 1033.17 679.11 1031.4 680.538 1029.98 682.299 1029.98 684.06 1029.98 685.488 1031.4 685.488 1033.17Z"/>
	<path transform="matrix(1,0,0,-1,0,1965)" d="M685.488 1157.89C685.488 1159.65 684.06 1161.08 682.299 1161.08 680.538 1161.08 679.11 1159.65 679.11 1157.89 679.11 1156.13 680.538 1154.7 682.299 1154.7 684.06 1154.7 685.488 1156.13 685.488 1157.89Z"/>
	<path transform="matrix(1,0,0,-1,0,1965)" stroke-width=".7087" stroke-linecap="round" stroke-miterlimit="10" stroke-linejoin="miter" fill="none" stroke="#000000" d="M682.299 1157.89H687.969"/>
	<path transform="matrix(1,0,0,-1,0,1965)" stroke-width=".7087" stroke-linecap="round" stroke-miterlimit="10" stroke-linejoin="miter" fill="none" stroke="#000000" d="M682.299 1163.56V1152.22"/>
	<use data-text="1" xlink:href="#font_1_1" transform="matrix(13.8189,0,0,-13.8189,738.046,835.45999)"/>
	<use data-text="0" xlink:href="#font_1_4" transform="matrix(13.8189,0,0,-13.8189,744.3474,835.45999)"/>
	<use data-text="X" xlink:href="#font_1_62" transform="matrix(13.8189,0,0,-13.8189,750.64889,835.45999)"/>
	<use data-text="J" xlink:href="#font_1_56" transform="matrix(13.8189,0,0,-13.8189,758.2078,835.45999)"/>
	<use data-text="Q" xlink:href="#font_1_59" transform="matrix(13.8189,0,0,-13.8189,763.87356,835.45999)"/>
	<use data-text="0" xlink:href="#font_1_4" transform="matrix(13.8189,0,0,-13.8189,772.69,835.45999)"/>
	<use data-text="1" xlink:href="#font_1_1" transform="matrix(13.8189,0,0,-13.8189,778.99148,835.45999)"/>
	<use data-text="B" xlink:href="#font_1_44" transform="matrix(13.8189,0,0,-13.8189,744.658,851.31008)"/>
	<use data-text="S" xlink:href="#font_1_12" transform="matrix(13.8189,0,0,-13.8189,752.217,851.31008)"/>
	<use data-text="0" xlink:href="#font_1_4" transform="matrix(13.8189,0,0,-13.8189,759.7759,851.31008)"/>
	<use data-text="0" xlink:href="#font_1_4" transform="matrix(13.8189,0,0,-13.8189,766.07736,851.31008)"/>
	<use data-text="2" xlink:href="#font_1_2" transform="matrix(13.8189,0,0,-13.8189,772.3787,851.31008)"/>
	<use data-text="1" xlink:href="#font_1_1" transform="matrix(.4252,0,0,-.4252,760.419,814.35)"/>
	<use data-text="0" xlink:href="#font_1_4" transform="matrix(.4252,0,0,-.4252,760.6129,814.35)"/>
	<use data-text="X" xlink:href="#font_1_62" transform="matrix(.4252,0,0,-.4252,760.80679,814.35)"/>
	<use data-text="J" xlink:href="#font_1_56" transform="matrix(.4252,0,0,-.4252,761.03939,814.35)"/>
	<use data-text="Q" xlink:href="#font_1_59" transform="matrix(.4252,0,0,-.4252,761.2137,814.35)"/>
	<use data-text="0" xlink:href="#font_1_4" transform="matrix(.4252,0,0,-.4252,761.485,814.35)"/>
	<use data-text="1" xlink:href="#font_1_1" transform="matrix(.4252,0,0,-.4252,761.6789,814.35)"/>
	<use data-text="B" xlink:href="#font_1_44" transform="matrix(.4252,0,0,-.4252,761.87277,814.35)"/>
	<use data-text="S" xlink:href="#font_1_12" transform="matrix(.4252,0,0,-.4252,762.10537,814.35)"/>
	<use data-text="0" xlink:href="#font_1_4" transform="matrix(.4252,0,0,-.4252,762.33798,814.35)"/>
	<use data-text="0" xlink:href="#font_1_4" transform="matrix(.4252,0,0,-.4252,762.5318,814.35)"/>
	<use data-text="2" xlink:href="#font_1_2" transform="matrix(.4252,0,0,-.4252,762.7257,814.35)"/>
	<path transform="matrix(1,0,0,-1,0,1965)" stroke-width=".7087" stroke-linecap="round" stroke-miterlimit="10" stroke-linejoin="miter" fill="none" stroke="#000000" d="M768.756 1157.89V1150.8"/>
	<path transform="matrix(1,0,0,-1,0,1965)" stroke-width=".7087" stroke-linecap="round" stroke-miterlimit="10" stroke-linejoin="miter" fill="none" stroke="#000000" d="M754.583 1157.89V1150.8"/>
	<path transform="matrix(1,0,0,-1,0,1965)" stroke-width=".7087" stroke-linecap="round" stroke-miterlimit="10" stroke-linejoin="miter" fill="none" stroke="#000000" d="M761.669 1164.98V1157.89"/>
	<path transform="matrix(1,0,0,-1,0,1965)" stroke-width=".7087" stroke-linecap="round" stroke-miterlimit="10" stroke-linejoin="miter" fill="none" stroke="#000000" d="M747.496 1150.8H775.843"/>
	<path transform="matrix(1,0,0,-1,0,1965)" stroke-width=".7087" stroke-linecap="round" stroke-miterlimit="10" stroke-linejoin="miter" fill="none" stroke="#000000" d="M775.843 1164.98V1150.8"/>
	<path transform="matrix(1,0,0,-1,0,1965)" stroke-width=".7087" stroke-linecap="round" stroke-miterlimit="10" stroke-linejoin="miter" fill="none" stroke="#000000" d="M747.496 1164.98H775.843"/>
	<path transform="matrix(1,0,0,-1,0,1965)" stroke-width=".7087" stroke-linecap="round" stroke-miterlimit="10" stroke-linejoin="miter" fill="none" stroke="#000000" d="M747.496 1164.98V1150.8"/>
	<path transform="matrix(1,0,0,-1,0,1965)" stroke-width=".7087" stroke-linecap="round" stroke-miterlimit="10" stroke-linejoin="miter" fill="none" stroke="#000000" d="M740.409 1157.89H747.496"/>
	<path transform="matrix(1,0,0,-1,0,1965)" stroke-width=".7087" stroke-linecap="round" stroke-miterlimit="10" stroke-linejoin="miter" fill="none" stroke="#000000" d="M775.843 1157.89H782.929"/>
	<use data-text="1" xlink:href="#font_1_1" transform="matrix(.4252,0,0,-.4252,1228.14,727.74)"/>
	<use data-text="0" xlink:href="#font_1_4" transform="matrix(.4252,0,0,-.4252,1228.3339,727.74)"/>
	<use data-text="X" xlink:href="#font_1_62" transform="matrix(.4252,0,0,-.4252,1228.5278,727.74)"/>
	<use data-text="J" xlink:href="#font_1_56" transform="matrix(.4252,0,0,-.4252,1228.7604,727.74)"/>
	<use data-text="Q" xlink:href="#font_1_59" transform="matrix(.4252,0,0,-.4252,1228.9347,727.74)"/>
	<use data-text="0" xlink:href="#font_1_4" transform="matrix(.4252,0,0,-.4252,1229.2059,727.74)"/>
	<use data-text="1" xlink:href="#font_1_1" transform="matrix(.4252,0,0,-.4252,1229.3999,727.74)"/>
	<use data-text="A" xlink:href="#font_1_10" transform="matrix(.4252,0,0,-.4252,1229.5938,727.74)"/>
	<use data-text="B" xlink:href="#font_1_44" transform="matrix(.4252,0,0,-.4252,1229.8264,727.74)"/>
	<use data-text="0" xlink:href="#font_1_4" transform="matrix(.4252,0,0,-.4252,1230.059,727.74)"/>
	<use data-text="0" xlink:href="#font_1_4" transform="matrix(.4252,0,0,-.4252,1230.2528,727.74)"/>
	<use data-text="1" xlink:href="#font_1_1" transform="matrix(.4252,0,0,-.4252,1230.4468,727.74)"/>
	<use data-text="1" xlink:href="#font_1_1" transform="matrix(13.8189,0,0,-13.8189,1225.6,747.57998)"/>
	<use data-text="0" xlink:href="#font_1_4" transform="matrix(13.8189,0,0,-13.8189,1231.9014,747.57998)"/>
	<use data-text="X" xlink:href="#font_1_62" transform="matrix(13.8189,0,0,-13.8189,1238.2028,747.57998)"/>
	<use data-text="J" xlink:href="#font_1_56" transform="matrix(13.8189,0,0,-13.8189,1245.7617,747.57998)"/>
	<use data-text="Q" xlink:href="#font_1_59" transform="matrix(13.8189,0,0,-13.8189,1251.4275,747.57998)"/>
	<use data-text="0" xlink:href="#font_1_4" transform="matrix(13.8189,0,0,-13.8189,1260.244,747.57998)"/>
	<use data-text="1" xlink:href="#font_1_1" transform="matrix(13.8189,0,0,-13.8189,1266.5454,747.57998)"/>
	<use data-text="A" xlink:href="#font_1_10" transform="matrix(13.8189,0,0,-13.8189,1232.22,763.43008)"/>
	<use data-text="B" xlink:href="#font_1_44" transform="matrix(13.8189,0,0,-13.8189,1239.7789,763.43008)"/>
	<use data-text="0" xlink:href="#font_1_4" transform="matrix(13.8189,0,0,-13.8189,1247.3379,763.43008)"/>
	<use data-text="0" xlink:href="#font_1_4" transform="matrix(13.8189,0,0,-13.8189,1253.6393,763.43008)"/>
	<use data-text="1" xlink:href="#font_1_1" transform="matrix(13.8189,0,0,-13.8189,1259.9407,763.43008)"/>
	<path transform="matrix(1,0,0,-1,0,1965)" d="M1252.42 1237.26C1252.42 1239.02 1250.99 1240.45 1249.23 1240.45 1247.47 1240.45 1246.04 1239.02 1246.04 1237.26 1246.04 1235.5 1247.47 1234.07 1249.23 1234.07 1250.99 1234.07 1252.42 1235.5 1252.42 1237.26Z"/>
	<path transform="matrix(1,0,0,-1,0,1965)" stroke-width=".7087" stroke-linecap="round" stroke-miterlimit="10" stroke-linejoin="miter" fill="none" stroke="#000000" d="M1227.97 1237.26H1235.06"/>
	<path transform="matrix(1,0,0,-1,0,1965)" stroke-width=".7087" stroke-linecap="round" stroke-miterlimit="10" stroke-linejoin="miter" fill="none" stroke="#000000" d="M1263.4 1237.26H1270.49"/>
	<path transform="matrix(1,0,0,-1,0,1965)" stroke-width=".7087" stroke-linecap="round" stroke-miterlimit="10" stroke-linejoin="miter" fill="none" stroke="#000000" d="M1235.06 1244.35 1263.4 1230.17"/>
	<path transform="matrix(1,0,0,-1,0,1965)" stroke-width=".7087" stroke-linecap="round" stroke-miterlimit="10" stroke-linejoin="miter" fill="none" stroke="#000000" d="M1235.06 1244.35H1263.4"/>
	<path transform="matrix(1,0,0,-1,0,1965)" stroke-width=".7087" stroke-linecap="round" stroke-miterlimit="10" stroke-linejoin="miter" fill="none" stroke="#000000" d="M1263.4 1244.35V1230.17"/>
	<path transform="matrix(1,0,0,-1,0,1965)" stroke-width=".7087" stroke-linecap="round" stroke-miterlimit="10" stroke-linejoin="miter" fill="none" stroke="#000000" d="M1235.06 1230.17H1263.4"/>
	<path transform="matrix(1,0,0,-1,0,1965)" stroke-width=".7087" stroke-linecap="round" stroke-miterlimit="10" stroke-linejoin="miter" fill="none" stroke="#000000" d="M1235.06 1244.35V1230.17"/>
	<path transform="matrix(1,0,0,-1,0,1965)" stroke-width=".7087" stroke-linecap="round" stroke-miterlimit="10" stroke-linejoin="miter" fill="none" stroke="#000000" d="M1256.32 1258.52C1256.32 1262.43 1253.14 1265.61 1249.23 1265.61 1245.31 1265.61 1242.14 1262.43 1242.14 1258.52 1242.14 1254.61 1245.31 1251.43 1249.23 1251.43 1253.14 1251.43 1256.32 1254.61 1256.32 1258.52Z"/>
	<path transform="matrix(1,0,0,-1,0,1965)" stroke-width=".7087" stroke-linecap="round" stroke-miterlimit="10" stroke-linejoin="miter" fill="none" stroke="#000000" d="M1249.23 1251.43V1237.26"/>
	<path transform="matrix(1,0,0,-1,0,1965)" stroke-width=".7087" stroke-linecap="round" stroke-miterlimit="10" stroke-linejoin="miter" fill="none" stroke="#000000" d="M1246.39 1262.77V1254.27"/>
	<path transform="matrix(1,0,0,-1,0,1965)" stroke-width=".7087" stroke-linecap="round" stroke-miterlimit="10" stroke-linejoin="miter" fill="none" stroke="#000000" d="M1246.39 1262.77 1249.23 1258.52"/>
	<path transform="matrix(1,0,0,-1,0,1965)" stroke-width=".7087" stroke-linecap="round" stroke-miterlimit="10" stroke-linejoin="miter" fill="none" stroke="#000000" d="M1249.23 1258.52 1252.06 1262.77"/>
	<path transform="matrix(1,0,0,-1,0,1965)" stroke-width=".7087" stroke-linecap="round" stroke-miterlimit="10" stroke-linejoin="miter" fill="none" stroke="#000000" d="M1252.06 1262.77V1254.27"/>
	<use data-text="1" xlink:href="#font_1_1" transform="matrix(.4252,0,0,-.4252,1228.14,875.14)"/>
	<use data-text="0" xlink:href="#font_1_4" transform="matrix(.4252,0,0,-.4252,1228.3339,875.14)"/>
	<use data-text="X" xlink:href="#font_1_62" transform="matrix(.4252,0,0,-.4252,1228.5278,875.14)"/>
	<use data-text="J" xlink:href="#font_1_56" transform="matrix(.4252,0,0,-.4252,1228.7604,875.14)"/>
	<use data-text="Q" xlink:href="#font_1_59" transform="matrix(.4252,0,0,-.4252,1228.9347,875.14)"/>
	<use data-text="0" xlink:href="#font_1_4" transform="matrix(.4252,0,0,-.4252,1229.2059,875.14)"/>
	<use data-text="1" xlink:href="#font_1_1" transform="matrix(.4252,0,0,-.4252,1229.3999,875.14)"/>
	<use data-text="A" xlink:href="#font_1_10" transform="matrix(.4252,0,0,-.4252,1229.5938,875.14)"/>
	<use data-text="B" xlink:href="#font_1_44" transform="matrix(.4252,0,0,-.4252,1229.8264,875.14)"/>
	<use data-text="0" xlink:href="#font_1_4" transform="matrix(.4252,0,0,-.4252,1230.059,875.14)"/>
	<use data-text="0" xlink:href="#font_1_4" transform="matrix(.4252,0,0,-.4252,1230.2528,875.14)"/>
	<use data-text="2" xlink:href="#font_1_2" transform="matrix(.4252,0,0,-.4252,1230.4468,875.14)"/>
	<use data-text="1" xlink:href="#font_1_1" transform="matrix(13.8189,0,0,-13.8189,1225.6,894.98)"/>
	<use data-text="0" xlink:href="#font_1_4" transform="matrix(13.8189,0,0,-13.8189,1231.9014,894.98)"/>
	<use data-text="X" xlink:href="#font_1_62" transform="matrix(13.8189,0,0,-13.8189,1238.2028,894.98)"/>
	<use data-text="J" xlink:href="#font_1_56" transform="matrix(13.8189,0,0,-13.8189,1245.7617,894.98)"/>
	<use data-text="Q" xlink:href="#font_1_59" transform="matrix(13.8189,0,0,-13.8189,1251.4275,894.98)"/>
	<use data-text="0" xlink:href="#font_1_4" transform="matrix(13.8189,0,0,-13.8189,1260.244,894.98)"/>
	<use data-text="1" xlink:href="#font_1_1" transform="matrix(13.8189,0,0,-13.8189,1266.5454,894.98)"/>
	<use data-text="A" xlink:href="#font_1_10" transform="matrix(13.8189,0,0,-13.8189,1232.22,910.82998)"/>
	<use data-text="B" xlink:href="#font_1_44" transform="matrix(13.8189,0,0,-13.8189,1239.7789,910.82998)"/>
	<use data-text="0" xlink:href="#font_1_4" transform="matrix(13.8189,0,0,-13.8189,1247.3379,910.82998)"/>
	<use data-text="0" xlink:href="#font_1_4" transform="matrix(13.8189,0,0,-13.8189,1253.6393,910.82998)"/>
	<use data-text="2" xlink:href="#font_1_2" transform="matrix(13.8189,0,0,-13.8189,1259.9407,910.82998)"/>
	<path transform="matrix(1,0,0,-1,0,1965)" d="M1252.42 1089.86C1252.42 1091.62 1250.99 1093.05 1249.23 1093.05 1247.47 1093.05 1246.04 1091.62 1246.04 1089.86 1246.04 1088.1 1247.47 1086.67 1249.23 1086.67 1250.99 1086.67 1252.42 1088.1 1252.42 1089.86Z"/>
	<path transform="matrix(1,0,0,-1,0,1965)" stroke-width=".7087" stroke-linecap="round" stroke-miterlimit="10" stroke-linejoin="miter" fill="none" stroke="#000000" d="M1227.97 1089.86H1235.06"/>
	<path transform="matrix(1,0,0,-1,0,1965)" stroke-width=".7087" stroke-linecap="round" stroke-miterlimit="10" stroke-linejoin="miter" fill="none" stroke="#000000" d="M1263.4 1089.86H1270.49"/>
	<path transform="matrix(1,0,0,-1,0,1965)" stroke-width=".7087" stroke-linecap="round" stroke-miterlimit="10" stroke-linejoin="miter" fill="none" stroke="#000000" d="M1235.06 1096.94 1263.4 1082.77"/>
	<path transform="matrix(1,0,0,-1,0,1965)" stroke-width=".7087" stroke-linecap="round" stroke-miterlimit="10" stroke-linejoin="miter" fill="none" stroke="#000000" d="M1235.06 1096.94H1263.4"/>
	<path transform="matrix(1,0,0,-1,0,1965)" stroke-width=".7087" stroke-linecap="round" stroke-miterlimit="10" stroke-linejoin="miter" fill="none" stroke="#000000" d="M1263.4 1096.94V1082.77"/>
	<path transform="matrix(1,0,0,-1,0,1965)" stroke-width=".7087" stroke-linecap="round" stroke-miterlimit="10" stroke-linejoin="miter" fill="none" stroke="#000000" d="M1235.06 1082.77H1263.4"/>
	<path transform="matrix(1,0,0,-1,0,1965)" stroke-width=".7087" stroke-linecap="round" stroke-miterlimit="10" stroke-linejoin="miter" fill="none" stroke="#000000" d="M1235.06 1096.94V1082.77"/>
	<path transform="matrix(1,0,0,-1,0,1965)" stroke-width=".7087" stroke-linecap="round" stroke-miterlimit="10" stroke-linejoin="miter" fill="none" stroke="#000000" d="M1256.32 1111.12C1256.32 1115.03 1253.14 1118.2 1249.23 1118.2 1245.31 1118.2 1242.14 1115.03 1242.14 1111.12 1242.14 1107.2 1245.31 1104.03 1249.23 1104.03 1253.14 1104.03 1256.32 1107.2 1256.32 1111.12Z"/>
	<path transform="matrix(1,0,0,-1,0,1965)" stroke-width=".7087" stroke-linecap="round" stroke-miterlimit="10" stroke-linejoin="miter" fill="none" stroke="#000000" d="M1249.23 1104.03V1089.86"/>
	<path transform="matrix(1,0,0,-1,0,1965)" stroke-width=".7087" stroke-linecap="round" stroke-miterlimit="10" stroke-linejoin="miter" fill="none" stroke="#000000" d="M1246.39 1115.37V1106.87"/>
	<path transform="matrix(1,0,0,-1,0,1965)" stroke-width=".7087" stroke-linecap="round" stroke-miterlimit="10" stroke-linejoin="miter" fill="none" stroke="#000000" d="M1246.39 1115.37 1249.23 1111.12"/>
	<path transform="matrix(1,0,0,-1,0,1965)" stroke-width=".7087" stroke-linecap="round" stroke-miterlimit="10" stroke-linejoin="miter" fill="none" stroke="#000000" d="M1249.23 1111.12 1252.06 1115.37"/>
	<path transform="matrix(1,0,0,-1,0,1965)" stroke-width=".7087" stroke-linecap="round" stroke-miterlimit="10" stroke-linejoin="miter" fill="none" stroke="#000000" d="M1252.06 1115.37V1106.87"/>
	<path transform="matrix(1,0,0,-1,0,1965)" d="M1297.77 1157.89C1297.77 1159.65 1296.34 1161.08 1294.58 1161.08 1292.82 1161.08 1291.39 1159.65 1291.39 1157.89 1291.39 1156.13 1292.82 1154.7 1294.58 1154.7 1296.34 1154.7 1297.77 1156.13 1297.77 1157.89Z"/>
	<path transform="matrix(1,0,0,-1,0,1965)" stroke-width=".7087" stroke-linecap="round" stroke-miterlimit="10" stroke-linejoin="miter" fill="none" stroke="#000000" d="M1294.58 1157.89H1300.25"/>
	<path transform="matrix(1,0,0,-1,0,1965)" stroke-width=".7087" stroke-linecap="round" stroke-miterlimit="10" stroke-linejoin="miter" fill="none" stroke="#000000" d="M1294.58 1163.56V1152.22"/>
	<use data-text="1" xlink:href="#font_1_1" transform="matrix(13.8189,0,0,-13.8189,1338.99,835.45999)"/>
	<use data-text="0" xlink:href="#font_1_4" transform="matrix(13.8189,0,0,-13.8189,1345.2914,835.45999)"/>
	<use data-text="X" xlink:href="#font_1_62" transform="matrix(13.8189,0,0,-13.8189,1351.5928,835.45999)"/>
	<use data-text="J" xlink:href="#font_1_56" transform="matrix(13.8189,0,0,-13.8189,1359.1517,835.45999)"/>
	<use data-text="Q" xlink:href="#font_1_59" transform="matrix(13.8189,0,0,-13.8189,1364.8175,835.45999)"/>
	<use data-text="0" xlink:href="#font_1_4" transform="matrix(13.8189,0,0,-13.8189,1373.634,835.45999)"/>
	<use data-text="1" xlink:href="#font_1_1" transform="matrix(13.8189,0,0,-13.8189,1379.9354,835.45999)"/>
	<use data-text="B" xlink:href="#font_1_44" transform="matrix(13.8189,0,0,-13.8189,1345.6,851.31008)"/>
	<use data-text="S" xlink:href="#font_1_12" transform="matrix(13.8189,0,0,-13.8189,1353.1589,851.31008)"/>
	<use data-text="0" xlink:href="#font_1_4" transform="matrix(13.8189,0,0,-13.8189,1360.7179,851.31008)"/>
	<use data-text="0" xlink:href="#font_1_4" transform="matrix(13.8189,0,0,-13.8189,1367.0193,851.31008)"/>
	<use data-text="1" xlink:href="#font_1_1" transform="matrix(13.8189,0,0,-13.8189,1373.3207,851.31008)"/>
	<use data-text="1" xlink:href="#font_1_1" transform="matrix(.4252,0,0,-.4252,1361.36,814.35)"/>
	<use data-text="0" xlink:href="#font_1_4" transform="matrix(.4252,0,0,-.4252,1361.5538,814.35)"/>
	<use data-text="X" xlink:href="#font_1_62" transform="matrix(.4252,0,0,-.4252,1361.7478,814.35)"/>
	<use data-text="J" xlink:href="#font_1_56" transform="matrix(.4252,0,0,-.4252,1361.9804,814.35)"/>
	<use data-text="Q" xlink:href="#font_1_59" transform="matrix(.4252,0,0,-.4252,1362.1547,814.35)"/>
	<use data-text="0" xlink:href="#font_1_4" transform="matrix(.4252,0,0,-.4252,1362.4259,814.35)"/>
	<use data-text="1" xlink:href="#font_1_1" transform="matrix(.4252,0,0,-.4252,1362.6199,814.35)"/>
	<use data-text="B" xlink:href="#font_1_44" transform="matrix(.4252,0,0,-.4252,1362.8137,814.35)"/>
	<use data-text="S" xlink:href="#font_1_12" transform="matrix(.4252,0,0,-.4252,1363.0464,814.35)"/>
	<use data-text="0" xlink:href="#font_1_4" transform="matrix(.4252,0,0,-.4252,1363.2789,814.35)"/>
	<use data-text="0" xlink:href="#font_1_4" transform="matrix(.4252,0,0,-.4252,1363.4728,814.35)"/>
	<use data-text="1" xlink:href="#font_1_1" transform="matrix(.4252,0,0,-.4252,1363.6668,814.35)"/>
	<path transform="matrix(1,0,0,-1,0,1965)" stroke-width=".7087" stroke-linecap="round" stroke-miterlimit="10" stroke-linejoin="miter" fill="none" stroke="#000000" d="M1369.7 1157.89V1150.8"/>
	<path transform="matrix(1,0,0,-1,0,1965)" stroke-width=".7087" stroke-linecap="round" stroke-miterlimit="10" stroke-linejoin="miter" fill="none" stroke="#000000" d="M1355.53 1157.89V1150.8"/>
	<path transform="matrix(1,0,0,-1,0,1965)" stroke-width=".7087" stroke-linecap="round" stroke-miterlimit="10" stroke-linejoin="miter" fill="none" stroke="#000000" d="M1362.61 1164.98V1157.89"/>
	<path transform="matrix(1,0,0,-1,0,1965)" stroke-width=".7087" stroke-linecap="round" stroke-miterlimit="10" stroke-linejoin="miter" fill="none" stroke="#000000" d="M1348.44 1150.8H1376.79"/>
	<path transform="matrix(1,0,0,-1,0,1965)" stroke-width=".7087" stroke-linecap="round" stroke-miterlimit="10" stroke-linejoin="miter" fill="none" stroke="#000000" d="M1376.79 1164.98V1150.8"/>
	<path transform="matrix(1,0,0,-1,0,1965)" stroke-width=".7087" stroke-linecap="round" stroke-miterlimit="10" stroke-linejoin="miter" fill="none" stroke="#000000" d="M1348.44 1164.98H1376.79"/>
	<path transform="matrix(1,0,0,-1,0,1965)" stroke-width=".7087" stroke-linecap="round" stroke-miterlimit="10" stroke-linejoin="miter" fill="none" stroke="#000000" d="M1348.44 1164.98V1150.8"/>
	<path transform="matrix(1,0,0,-1,0,1965)" stroke-width=".7087" stroke-linecap="round" stroke-miterlimit="10" stroke-linejoin="miter" fill="none" stroke="#000000" d="M1341.35 1157.89H1348.44"/>
	<path transform="matrix(1,0,0,-1,0,1965)" stroke-width=".7087" stroke-linecap="round" stroke-miterlimit="10" stroke-linejoin="miter" fill="none" stroke="#000000" d="M1376.79 1157.89H1383.87"/>
	<path transform="matrix(1,0,0,-1,0,1965)" d="M1433.83 1157.89C1433.83 1159.65 1432.41 1161.08 1430.65 1161.08 1428.88 1161.08 1427.46 1159.65 1427.46 1157.89 1427.46 1156.13 1428.88 1154.7 1430.65 1154.7 1432.41 1154.7 1433.83 1156.13 1433.83 1157.89Z"/>
	<path transform="matrix(1,0,0,-1,0,1965)" stroke-width=".7087" stroke-linecap="round" stroke-miterlimit="10" stroke-linejoin="miter" fill="none" stroke="#000000" d="M1424.98 1157.89H1430.65"/>
	<path transform="matrix(1,0,0,-1,0,1965)" stroke-width=".7087" stroke-linecap="round" stroke-miterlimit="10" stroke-linejoin="miter" fill="none" stroke="#000000" d="M1430.65 1163.56V1152.22"/>
	<use data-text="1" xlink:href="#font_1_1" transform="matrix(13.8189,0,0,-13.8189,1560.09,628.41006)"/>
	<use data-text="0" xlink:href="#font_1_4" transform="matrix(13.8189,0,0,-13.8189,1566.3914,628.41006)"/>
	<use data-text="X" xlink:href="#font_1_62" transform="matrix(13.8189,0,0,-13.8189,1572.6928,628.41006)"/>
	<use data-text="J" xlink:href="#font_1_56" transform="matrix(13.8189,0,0,-13.8189,1580.2517,628.41006)"/>
	<use data-text="Q" xlink:href="#font_1_59" transform="matrix(13.8189,0,0,-13.8189,1585.9175,628.41006)"/>
	<use data-text="0" xlink:href="#font_1_4" transform="matrix(13.8189,0,0,-13.8189,1594.734,628.41006)"/>
	<use data-text="1" xlink:href="#font_1_1" transform="matrix(13.8189,0,0,-13.8189,1601.0354,628.41006)"/>
	<use data-text="A" xlink:href="#font_1_10" transform="matrix(13.8189,0,0,-13.8189,1566.39,644.26)"/>
	<use data-text="C" xlink:href="#font_1_26" transform="matrix(13.8189,0,0,-13.8189,1573.949,644.26)"/>
	<use data-text="0" xlink:href="#font_1_4" transform="matrix(13.8189,0,0,-13.8189,1582.1298,644.26)"/>
	<use data-text="0" xlink:href="#font_1_4" transform="matrix(13.8189,0,0,-13.8189,1588.4312,644.26)"/>
	<use data-text="1" xlink:href="#font_1_1" transform="matrix(13.8189,0,0,-13.8189,1594.7326,644.26)"/>
	<use data-text="1" xlink:href="#font_1_1" transform="matrix(.4252,0,0,-.4252,1582.71,614.5)"/>
	<use data-text="0" xlink:href="#font_1_4" transform="matrix(.4252,0,0,-.4252,1582.9038,614.5)"/>
	<use data-text="X" xlink:href="#font_1_62" transform="matrix(.4252,0,0,-.4252,1583.0978,614.5)"/>
	<use data-text="J" xlink:href="#font_1_56" transform="matrix(.4252,0,0,-.4252,1583.3303,614.5)"/>
	<use data-text="Q" xlink:href="#font_1_59" transform="matrix(.4252,0,0,-.4252,1583.5046,614.5)"/>
	<use data-text="0" xlink:href="#font_1_4" transform="matrix(.4252,0,0,-.4252,1583.7759,614.5)"/>
	<use data-text="1" xlink:href="#font_1_1" transform="matrix(.4252,0,0,-.4252,1583.9699,614.5)"/>
	<use data-text="A" xlink:href="#font_1_10" transform="matrix(.4252,0,0,-.4252,1584.1637,614.5)"/>
	<use data-text="C" xlink:href="#font_1_26" transform="matrix(.4252,0,0,-.4252,1584.3964,614.5)"/>
	<use data-text="0" xlink:href="#font_1_4" transform="matrix(.4252,0,0,-.4252,1584.6481,614.5)"/>
	<use data-text="0" xlink:href="#font_1_4" transform="matrix(.4252,0,0,-.4252,1584.8419,614.5)"/>
	<use data-text="1" xlink:href="#font_1_1" transform="matrix(.4252,0,0,-.4252,1585.0358,614.5)"/>
	<path transform="matrix(1,0,0,-1,0,1965)" stroke-width=".7087" stroke-linecap="round" stroke-miterlimit="10" stroke-linejoin="miter" fill="none" stroke="#000000" d="M1597.89 1425.76V1383.24"/>
	<path transform="matrix(1,0,0,-1,0,1965)" stroke-width=".7087" stroke-linecap="round" stroke-miterlimit="10" stroke-linejoin="miter" fill="none" stroke="#000000" d="M1569.54 1425.76V1383.24"/>
	<path transform="matrix(1,0,0,-1,0,1965)" stroke-width=".7087" stroke-linecap="round" stroke-miterlimit="10" stroke-linejoin="miter" fill="none" stroke="#000000" d="M1597.89 1383.24 1583.72 1404.5"/>
	<path transform="matrix(1,0,0,-1,0,1965)" stroke-width=".7087" stroke-linecap="round" stroke-miterlimit="10" stroke-linejoin="miter" fill="none" stroke="#000000" d="M1583.72 1404.5 1569.54 1383.24"/>
	<path transform="matrix(1,0,0,-1,0,1965)" stroke-width=".7087" stroke-linecap="round" stroke-miterlimit="10" stroke-linejoin="miter" fill="none" stroke="#000000" d="M682.299 1529.23V1515.06"/>
	<path transform="matrix(1,0,0,-1,0,1965)" stroke-width=".7087" stroke-linecap="round" stroke-miterlimit="10" stroke-linejoin="miter" fill="none" stroke="#000000" d="M668.126 1515.06 682.299 1529.23"/>
	<path transform="matrix(1,0,0,-1,0,1965)" stroke-width=".7087" stroke-linecap="round" stroke-miterlimit="10" stroke-linejoin="miter" fill="none" stroke="#000000" d="M682.299 1529.23 696.472 1515.06"/>
	<path transform="matrix(1,0,0,-1,0,1965)" stroke-width=".7087" stroke-linecap="round" stroke-miterlimit="10" stroke-linejoin="miter" fill="none" stroke="#000000" d="M1430.65 1458.36V1444.19"/>
	<path transform="matrix(1,0,0,-1,0,1965)" stroke-width=".7087" stroke-linecap="round" stroke-miterlimit="10" stroke-linejoin="miter" fill="none" stroke="#000000" d="M1444.82 1458.36 1430.65 1444.19"/>
	<path transform="matrix(1,0,0,-1,0,1965)" stroke-width=".7087" stroke-linecap="round" stroke-miterlimit="10" stroke-linejoin="miter" fill="none" stroke="#000000" d="M1430.65 1444.19 1416.47 1458.36"/>
	<path transform="matrix(1,0,0,-1,0,1965)" stroke-width=".7087" stroke-linecap="round" stroke-miterlimit="10" stroke-linejoin="miter" fill="none" stroke="#000000" d="M1430.65 962.299V948.126"/>
	<path transform="matrix(1,0,0,-1,0,1965)" stroke-width=".7087" stroke-linecap="round" stroke-miterlimit="10" stroke-linejoin="miter" fill="none" stroke="#000000" d="M1416.47 948.126 1430.65 962.299"/>
	<path transform="matrix(1,0,0,-1,0,1965)" stroke-width=".7087" stroke-linecap="round" stroke-miterlimit="10" stroke-linejoin="miter" fill="none" stroke="#000000" d="M1430.65 962.299 1444.82 948.126"/>
	<path transform="matrix(1,0,0,-1,0,1965)" stroke-width=".7087" stroke-linecap="round" stroke-miterlimit="10" stroke-linejoin="miter" fill="none" stroke="#000000" d="M682.299 891.433V877.26"/>
	<path transform="matrix(1,0,0,-1,0,1965)" stroke-width=".7087" stroke-linecap="round" stroke-miterlimit="10" stroke-linejoin="miter" fill="none" stroke="#000000" d="M696.472 891.433 682.299 877.26"/>
	<path transform="matrix(1,0,0,-1,0,1965)" stroke-width=".7087" stroke-linecap="round" stroke-miterlimit="10" stroke-linejoin="miter" fill="none" stroke="#000000" d="M682.299 877.26 668.126 891.433"/>
</svg>
